solid ASCII
  facet normal 9.659258e-01 -2.588190e-01 -1.496598e-16
    outer loop
      vertex   -2.906478e-02 -4.052775e-03 0.000000e+00
      vertex   -2.906478e-02 -4.052775e-03 3.000000e-03
      vertex   -2.922950e-02 -4.667525e-03 0.000000e+00
    endloop
  endfacet
  facet normal 9.659258e-01 -2.588190e-01 0.000000e+00
    outer loop
      vertex   -2.922950e-02 -4.667525e-03 0.000000e+00
      vertex   -2.906478e-02 -4.052775e-03 3.000000e-03
      vertex   -2.922950e-02 -4.667525e-03 3.000000e-03
    endloop
  endfacet
  facet normal 9.659258e-01 2.588190e-01 -0.000000e+00
    outer loop
      vertex   -2.922950e-02 -4.667525e-03 0.000000e+00
      vertex   -2.922950e-02 -4.667525e-03 3.000000e-03
      vertex   -2.906478e-02 -5.282275e-03 0.000000e+00
    endloop
  endfacet
  facet normal 9.659258e-01 2.588190e-01 7.482991e-17
    outer loop
      vertex   -2.906478e-02 -5.282275e-03 0.000000e+00
      vertex   -2.922950e-02 -4.667525e-03 3.000000e-03
      vertex   -2.906478e-02 -5.282275e-03 3.000000e-03
    endloop
  endfacet
  facet normal 7.071068e-01 7.071068e-01 2.044391e-16
    outer loop
      vertex   -2.906478e-02 -5.282275e-03 0.000000e+00
      vertex   -2.906478e-02 -5.282275e-03 3.000000e-03
      vertex   -2.861475e-02 -5.732303e-03 0.000000e+00
    endloop
  endfacet
  facet normal 7.071068e-01 7.071068e-01 -0.000000e+00
    outer loop
      vertex   -2.861475e-02 -5.732303e-03 0.000000e+00
      vertex   -2.906478e-02 -5.282275e-03 3.000000e-03
      vertex   -2.861475e-02 -5.732303e-03 3.000000e-03
    endloop
  endfacet
  facet normal 2.588190e-01 9.659258e-01 -0.000000e+00
    outer loop
      vertex   -2.861475e-02 -5.732303e-03 0.000000e+00
      vertex   -2.861475e-02 -5.732303e-03 3.000000e-03
      vertex   -2.800000e-02 -5.897025e-03 0.000000e+00
    endloop
  endfacet
  facet normal 2.588190e-01 9.659258e-01 -0.000000e+00
    outer loop
      vertex   -2.800000e-02 -5.897025e-03 0.000000e+00
      vertex   -2.861475e-02 -5.732303e-03 3.000000e-03
      vertex   -2.800000e-02 -5.897025e-03 3.000000e-03
    endloop
  endfacet
  facet normal -2.588190e-01 9.659258e-01 0.000000e+00
    outer loop
      vertex   -2.800000e-02 -5.897025e-03 0.000000e+00
      vertex   -2.800000e-02 -5.897025e-03 3.000000e-03
      vertex   -2.738525e-02 -5.732303e-03 0.000000e+00
    endloop
  endfacet
  facet normal -2.588190e-01 9.659258e-01 0.000000e+00
    outer loop
      vertex   -2.738525e-02 -5.732303e-03 0.000000e+00
      vertex   -2.800000e-02 -5.897025e-03 3.000000e-03
      vertex   -2.738525e-02 -5.732303e-03 3.000000e-03
    endloop
  endfacet
  facet normal -7.071068e-01 7.071068e-01 0.000000e+00
    outer loop
      vertex   -2.738525e-02 -5.732303e-03 0.000000e+00
      vertex   -2.738525e-02 -5.732303e-03 3.000000e-03
      vertex   -2.693522e-02 -5.282275e-03 0.000000e+00
    endloop
  endfacet
  facet normal -7.071068e-01 7.071068e-01 -2.044391e-16
    outer loop
      vertex   -2.693522e-02 -5.282275e-03 0.000000e+00
      vertex   -2.738525e-02 -5.732303e-03 3.000000e-03
      vertex   -2.693522e-02 -5.282275e-03 3.000000e-03
    endloop
  endfacet
  facet normal -9.659258e-01 2.588190e-01 -7.482991e-17
    outer loop
      vertex   -2.693522e-02 -5.282275e-03 0.000000e+00
      vertex   -2.693522e-02 -5.282275e-03 3.000000e-03
      vertex   -2.677050e-02 -4.667525e-03 0.000000e+00
    endloop
  endfacet
  facet normal -9.659258e-01 2.588190e-01 0.000000e+00
    outer loop
      vertex   -2.677050e-02 -4.667525e-03 0.000000e+00
      vertex   -2.693522e-02 -5.282275e-03 3.000000e-03
      vertex   -2.677050e-02 -4.667525e-03 3.000000e-03
    endloop
  endfacet
  facet normal -9.659258e-01 -2.588190e-01 0.000000e+00
    outer loop
      vertex   -2.677050e-02 -4.667525e-03 0.000000e+00
      vertex   -2.677050e-02 -4.667525e-03 3.000000e-03
      vertex   -2.693522e-02 -4.052775e-03 0.000000e+00
    endloop
  endfacet
  facet normal -9.659258e-01 -2.588190e-01 7.482991e-17
    outer loop
      vertex   -2.693522e-02 -4.052775e-03 0.000000e+00
      vertex   -2.677050e-02 -4.667525e-03 3.000000e-03
      vertex   -2.693522e-02 -4.052775e-03 3.000000e-03
    endloop
  endfacet
  facet normal -7.071068e-01 -7.071068e-01 2.044391e-16
    outer loop
      vertex   -2.693522e-02 -4.052775e-03 0.000000e+00
      vertex   -2.693522e-02 -4.052775e-03 3.000000e-03
      vertex   -2.738525e-02 -3.602747e-03 0.000000e+00
    endloop
  endfacet
  facet normal -7.071068e-01 -7.071068e-01 -7.155369e-16
    outer loop
      vertex   -2.738525e-02 -3.602747e-03 0.000000e+00
      vertex   -2.693522e-02 -4.052775e-03 3.000000e-03
      vertex   -2.738525e-02 -3.602747e-03 3.000000e-03
    endloop
  endfacet
  facet normal -2.588190e-01 -9.659258e-01 -1.596851e-16
    outer loop
      vertex   -2.738525e-02 -3.602747e-03 0.000000e+00
      vertex   -2.738525e-02 -3.602747e-03 3.000000e-03
      vertex   -2.800000e-02 -3.438025e-03 0.000000e+00
    endloop
  endfacet
  facet normal -2.588190e-01 -9.659258e-01 0.000000e+00
    outer loop
      vertex   -2.800000e-02 -3.438025e-03 0.000000e+00
      vertex   -2.738525e-02 -3.602747e-03 3.000000e-03
      vertex   -2.800000e-02 -3.438025e-03 3.000000e-03
    endloop
  endfacet
  facet normal 2.588190e-01 -9.659258e-01 0.000000e+00
    outer loop
      vertex   -2.800000e-02 -3.438025e-03 0.000000e+00
      vertex   -2.800000e-02 -3.438025e-03 3.000000e-03
      vertex   -2.861475e-02 -3.602747e-03 0.000000e+00
    endloop
  endfacet
  facet normal 2.588190e-01 -9.659258e-01 1.596851e-16
    outer loop
      vertex   -2.861475e-02 -3.602747e-03 0.000000e+00
      vertex   -2.800000e-02 -3.438025e-03 3.000000e-03
      vertex   -2.861475e-02 -3.602747e-03 3.000000e-03
    endloop
  endfacet
  facet normal 7.071068e-01 -7.071068e-01 7.155369e-16
    outer loop
      vertex   -2.861475e-02 -3.602747e-03 0.000000e+00
      vertex   -2.861475e-02 -3.602747e-03 3.000000e-03
      vertex   -2.906478e-02 -4.052775e-03 0.000000e+00
    endloop
  endfacet
  facet normal 7.071068e-01 -7.071068e-01 -4.088782e-16
    outer loop
      vertex   -2.906478e-02 -4.052775e-03 0.000000e+00
      vertex   -2.861475e-02 -3.602747e-03 3.000000e-03
      vertex   -2.906478e-02 -4.052775e-03 3.000000e-03
    endloop
  endfacet
  facet normal 9.659258e-01 -2.588190e-01 0.000000e+00
    outer loop
      vertex   -2.906478e-02 2.594723e-02 0.000000e+00
      vertex   -2.906478e-02 2.594723e-02 3.000000e-03
      vertex   -2.922950e-02 2.533248e-02 0.000000e+00
    endloop
  endfacet
  facet normal 9.659258e-01 -2.588190e-01 0.000000e+00
    outer loop
      vertex   -2.922950e-02 2.533248e-02 0.000000e+00
      vertex   -2.906478e-02 2.594723e-02 3.000000e-03
      vertex   -2.922950e-02 2.533248e-02 3.000000e-03
    endloop
  endfacet
  facet normal 9.659258e-01 2.588190e-01 -0.000000e+00
    outer loop
      vertex   -2.922950e-02 2.533248e-02 0.000000e+00
      vertex   -2.922950e-02 2.533248e-02 3.000000e-03
      vertex   -2.906478e-02 2.471773e-02 0.000000e+00
    endloop
  endfacet
  facet normal 9.659258e-01 2.588190e-01 -0.000000e+00
    outer loop
      vertex   -2.906478e-02 2.471773e-02 0.000000e+00
      vertex   -2.922950e-02 2.533248e-02 3.000000e-03
      vertex   -2.906478e-02 2.471773e-02 3.000000e-03
    endloop
  endfacet
  facet normal 7.071068e-01 7.071068e-01 -0.000000e+00
    outer loop
      vertex   -2.906478e-02 2.471773e-02 0.000000e+00
      vertex   -2.906478e-02 2.471773e-02 3.000000e-03
      vertex   -2.861475e-02 2.426770e-02 0.000000e+00
    endloop
  endfacet
  facet normal 7.071068e-01 7.071068e-01 -0.000000e+00
    outer loop
      vertex   -2.861475e-02 2.426770e-02 0.000000e+00
      vertex   -2.906478e-02 2.471773e-02 3.000000e-03
      vertex   -2.861475e-02 2.426770e-02 3.000000e-03
    endloop
  endfacet
  facet normal 2.588190e-01 9.659258e-01 -0.000000e+00
    outer loop
      vertex   -2.861475e-02 2.426770e-02 0.000000e+00
      vertex   -2.861475e-02 2.426770e-02 3.000000e-03
      vertex   -2.800000e-02 2.410298e-02 0.000000e+00
    endloop
  endfacet
  facet normal 2.588190e-01 9.659258e-01 -0.000000e+00
    outer loop
      vertex   -2.800000e-02 2.410298e-02 0.000000e+00
      vertex   -2.861475e-02 2.426770e-02 3.000000e-03
      vertex   -2.800000e-02 2.410298e-02 3.000000e-03
    endloop
  endfacet
  facet normal -2.588190e-01 9.659258e-01 0.000000e+00
    outer loop
      vertex   -2.800000e-02 2.410298e-02 0.000000e+00
      vertex   -2.800000e-02 2.410298e-02 3.000000e-03
      vertex   -2.738525e-02 2.426770e-02 0.000000e+00
    endloop
  endfacet
  facet normal -2.588190e-01 9.659258e-01 0.000000e+00
    outer loop
      vertex   -2.738525e-02 2.426770e-02 0.000000e+00
      vertex   -2.800000e-02 2.410298e-02 3.000000e-03
      vertex   -2.738525e-02 2.426770e-02 3.000000e-03
    endloop
  endfacet
  facet normal -7.071068e-01 7.071068e-01 0.000000e+00
    outer loop
      vertex   -2.738525e-02 2.426770e-02 0.000000e+00
      vertex   -2.738525e-02 2.426770e-02 3.000000e-03
      vertex   -2.693522e-02 2.471773e-02 0.000000e+00
    endloop
  endfacet
  facet normal -7.071068e-01 7.071068e-01 0.000000e+00
    outer loop
      vertex   -2.693522e-02 2.471773e-02 0.000000e+00
      vertex   -2.738525e-02 2.426770e-02 3.000000e-03
      vertex   -2.693522e-02 2.471773e-02 3.000000e-03
    endloop
  endfacet
  facet normal -9.659258e-01 2.588190e-01 0.000000e+00
    outer loop
      vertex   -2.693522e-02 2.471773e-02 0.000000e+00
      vertex   -2.693522e-02 2.471773e-02 3.000000e-03
      vertex   -2.677050e-02 2.533248e-02 0.000000e+00
    endloop
  endfacet
  facet normal -9.659258e-01 2.588190e-01 0.000000e+00
    outer loop
      vertex   -2.677050e-02 2.533248e-02 0.000000e+00
      vertex   -2.693522e-02 2.471773e-02 3.000000e-03
      vertex   -2.677050e-02 2.533248e-02 3.000000e-03
    endloop
  endfacet
  facet normal -9.659258e-01 -2.588190e-01 0.000000e+00
    outer loop
      vertex   -2.677050e-02 2.533248e-02 0.000000e+00
      vertex   -2.677050e-02 2.533248e-02 3.000000e-03
      vertex   -2.693522e-02 2.594723e-02 0.000000e+00
    endloop
  endfacet
  facet normal -9.659258e-01 -2.588190e-01 0.000000e+00
    outer loop
      vertex   -2.693522e-02 2.594723e-02 0.000000e+00
      vertex   -2.677050e-02 2.533248e-02 3.000000e-03
      vertex   -2.693522e-02 2.594723e-02 3.000000e-03
    endloop
  endfacet
  facet normal -7.071068e-01 -7.071068e-01 0.000000e+00
    outer loop
      vertex   -2.693522e-02 2.594723e-02 0.000000e+00
      vertex   -2.693522e-02 2.594723e-02 3.000000e-03
      vertex   -2.738525e-02 2.639725e-02 0.000000e+00
    endloop
  endfacet
  facet normal -7.071068e-01 -7.071068e-01 -8.177565e-16
    outer loop
      vertex   -2.738525e-02 2.639725e-02 0.000000e+00
      vertex   -2.693522e-02 2.594723e-02 3.000000e-03
      vertex   -2.738525e-02 2.639725e-02 3.000000e-03
    endloop
  endfacet
  facet normal -2.588190e-01 -9.659258e-01 -2.993196e-16
    outer loop
      vertex   -2.738525e-02 2.639725e-02 0.000000e+00
      vertex   -2.738525e-02 2.639725e-02 3.000000e-03
      vertex   -2.800000e-02 2.656198e-02 0.000000e+00
    endloop
  endfacet
  facet normal -2.588190e-01 -9.659258e-01 0.000000e+00
    outer loop
      vertex   -2.800000e-02 2.656198e-02 0.000000e+00
      vertex   -2.738525e-02 2.639725e-02 3.000000e-03
      vertex   -2.800000e-02 2.656198e-02 3.000000e-03
    endloop
  endfacet
  facet normal 2.588190e-01 -9.659258e-01 0.000000e+00
    outer loop
      vertex   -2.800000e-02 2.656198e-02 0.000000e+00
      vertex   -2.800000e-02 2.656198e-02 3.000000e-03
      vertex   -2.861475e-02 2.639725e-02 0.000000e+00
    endloop
  endfacet
  facet normal 2.588190e-01 -9.659258e-01 2.993196e-16
    outer loop
      vertex   -2.861475e-02 2.639725e-02 0.000000e+00
      vertex   -2.800000e-02 2.656198e-02 3.000000e-03
      vertex   -2.861475e-02 2.639725e-02 3.000000e-03
    endloop
  endfacet
  facet normal 7.071068e-01 -7.071068e-01 8.177565e-16
    outer loop
      vertex   -2.861475e-02 2.639725e-02 0.000000e+00
      vertex   -2.861475e-02 2.639725e-02 3.000000e-03
      vertex   -2.906478e-02 2.594723e-02 0.000000e+00
    endloop
  endfacet
  facet normal 7.071068e-01 -7.071068e-01 0.000000e+00
    outer loop
      vertex   -2.906478e-02 2.594723e-02 0.000000e+00
      vertex   -2.861475e-02 2.639725e-02 3.000000e-03
      vertex   -2.906478e-02 2.594723e-02 3.000000e-03
    endloop
  endfacet
  facet normal 9.659258e-01 -2.588190e-01 0.000000e+00
    outer loop
      vertex   2.693522e-02 2.594723e-02 0.000000e+00
      vertex   2.693522e-02 2.594723e-02 3.000000e-03
      vertex   2.677050e-02 2.533248e-02 0.000000e+00
    endloop
  endfacet
  facet normal 9.659258e-01 -2.588190e-01 0.000000e+00
    outer loop
      vertex   2.677050e-02 2.533248e-02 0.000000e+00
      vertex   2.693522e-02 2.594723e-02 3.000000e-03
      vertex   2.677050e-02 2.533248e-02 3.000000e-03
    endloop
  endfacet
  facet normal 9.659258e-01 2.588190e-01 -0.000000e+00
    outer loop
      vertex   2.677050e-02 2.533248e-02 0.000000e+00
      vertex   2.677050e-02 2.533248e-02 3.000000e-03
      vertex   2.693522e-02 2.471773e-02 0.000000e+00
    endloop
  endfacet
  facet normal 9.659258e-01 2.588190e-01 -0.000000e+00
    outer loop
      vertex   2.693522e-02 2.471773e-02 0.000000e+00
      vertex   2.677050e-02 2.533248e-02 3.000000e-03
      vertex   2.693522e-02 2.471773e-02 3.000000e-03
    endloop
  endfacet
  facet normal 7.071068e-01 7.071068e-01 -0.000000e+00
    outer loop
      vertex   2.693522e-02 2.471773e-02 0.000000e+00
      vertex   2.693522e-02 2.471773e-02 3.000000e-03
      vertex   2.738525e-02 2.426770e-02 0.000000e+00
    endloop
  endfacet
  facet normal 7.071068e-01 7.071068e-01 -0.000000e+00
    outer loop
      vertex   2.738525e-02 2.426770e-02 0.000000e+00
      vertex   2.693522e-02 2.471773e-02 3.000000e-03
      vertex   2.738525e-02 2.426770e-02 3.000000e-03
    endloop
  endfacet
  facet normal 2.588190e-01 9.659258e-01 -0.000000e+00
    outer loop
      vertex   2.738525e-02 2.426770e-02 0.000000e+00
      vertex   2.738525e-02 2.426770e-02 3.000000e-03
      vertex   2.800000e-02 2.410298e-02 0.000000e+00
    endloop
  endfacet
  facet normal 2.588190e-01 9.659258e-01 -0.000000e+00
    outer loop
      vertex   2.800000e-02 2.410298e-02 0.000000e+00
      vertex   2.738525e-02 2.426770e-02 3.000000e-03
      vertex   2.800000e-02 2.410298e-02 3.000000e-03
    endloop
  endfacet
  facet normal -2.588190e-01 9.659258e-01 0.000000e+00
    outer loop
      vertex   2.800000e-02 2.410298e-02 0.000000e+00
      vertex   2.800000e-02 2.410298e-02 3.000000e-03
      vertex   2.861475e-02 2.426770e-02 0.000000e+00
    endloop
  endfacet
  facet normal -2.588190e-01 9.659258e-01 0.000000e+00
    outer loop
      vertex   2.861475e-02 2.426770e-02 0.000000e+00
      vertex   2.800000e-02 2.410298e-02 3.000000e-03
      vertex   2.861475e-02 2.426770e-02 3.000000e-03
    endloop
  endfacet
  facet normal -7.071068e-01 7.071068e-01 0.000000e+00
    outer loop
      vertex   2.861475e-02 2.426770e-02 0.000000e+00
      vertex   2.861475e-02 2.426770e-02 3.000000e-03
      vertex   2.906478e-02 2.471773e-02 0.000000e+00
    endloop
  endfacet
  facet normal -7.071068e-01 7.071068e-01 0.000000e+00
    outer loop
      vertex   2.906478e-02 2.471773e-02 0.000000e+00
      vertex   2.861475e-02 2.426770e-02 3.000000e-03
      vertex   2.906478e-02 2.471773e-02 3.000000e-03
    endloop
  endfacet
  facet normal -9.659258e-01 2.588190e-01 0.000000e+00
    outer loop
      vertex   2.906478e-02 2.471773e-02 0.000000e+00
      vertex   2.906478e-02 2.471773e-02 3.000000e-03
      vertex   2.922950e-02 2.533248e-02 0.000000e+00
    endloop
  endfacet
  facet normal -9.659258e-01 2.588190e-01 0.000000e+00
    outer loop
      vertex   2.922950e-02 2.533248e-02 0.000000e+00
      vertex   2.906478e-02 2.471773e-02 3.000000e-03
      vertex   2.922950e-02 2.533248e-02 3.000000e-03
    endloop
  endfacet
  facet normal -9.659258e-01 -2.588190e-01 0.000000e+00
    outer loop
      vertex   2.922950e-02 2.533248e-02 0.000000e+00
      vertex   2.922950e-02 2.533248e-02 3.000000e-03
      vertex   2.906478e-02 2.594723e-02 0.000000e+00
    endloop
  endfacet
  facet normal -9.659258e-01 -2.588190e-01 0.000000e+00
    outer loop
      vertex   2.906478e-02 2.594723e-02 0.000000e+00
      vertex   2.922950e-02 2.533248e-02 3.000000e-03
      vertex   2.906478e-02 2.594723e-02 3.000000e-03
    endloop
  endfacet
  facet normal -7.071068e-01 -7.071068e-01 0.000000e+00
    outer loop
      vertex   2.906478e-02 2.594723e-02 0.000000e+00
      vertex   2.906478e-02 2.594723e-02 3.000000e-03
      vertex   2.861475e-02 2.639725e-02 0.000000e+00
    endloop
  endfacet
  facet normal -7.071068e-01 -7.071068e-01 -8.177565e-16
    outer loop
      vertex   2.861475e-02 2.639725e-02 0.000000e+00
      vertex   2.906478e-02 2.594723e-02 3.000000e-03
      vertex   2.861475e-02 2.639725e-02 3.000000e-03
    endloop
  endfacet
  facet normal -2.588190e-01 -9.659258e-01 -2.993196e-16
    outer loop
      vertex   2.861475e-02 2.639725e-02 0.000000e+00
      vertex   2.861475e-02 2.639725e-02 3.000000e-03
      vertex   2.800000e-02 2.656198e-02 0.000000e+00
    endloop
  endfacet
  facet normal -2.588190e-01 -9.659258e-01 0.000000e+00
    outer loop
      vertex   2.800000e-02 2.656198e-02 0.000000e+00
      vertex   2.861475e-02 2.639725e-02 3.000000e-03
      vertex   2.800000e-02 2.656198e-02 3.000000e-03
    endloop
  endfacet
  facet normal 2.588190e-01 -9.659258e-01 0.000000e+00
    outer loop
      vertex   2.800000e-02 2.656198e-02 0.000000e+00
      vertex   2.800000e-02 2.656198e-02 3.000000e-03
      vertex   2.738525e-02 2.639725e-02 0.000000e+00
    endloop
  endfacet
  facet normal 2.588190e-01 -9.659258e-01 2.993196e-16
    outer loop
      vertex   2.738525e-02 2.639725e-02 0.000000e+00
      vertex   2.800000e-02 2.656198e-02 3.000000e-03
      vertex   2.738525e-02 2.639725e-02 3.000000e-03
    endloop
  endfacet
  facet normal 7.071068e-01 -7.071068e-01 8.177565e-16
    outer loop
      vertex   2.738525e-02 2.639725e-02 0.000000e+00
      vertex   2.738525e-02 2.639725e-02 3.000000e-03
      vertex   2.693522e-02 2.594723e-02 0.000000e+00
    endloop
  endfacet
  facet normal 7.071068e-01 -7.071068e-01 0.000000e+00
    outer loop
      vertex   2.693522e-02 2.594723e-02 0.000000e+00
      vertex   2.738525e-02 2.639725e-02 3.000000e-03
      vertex   2.693522e-02 2.594723e-02 3.000000e-03
    endloop
  endfacet
  facet normal 9.659258e-01 -2.588190e-01 -1.496598e-16
    outer loop
      vertex   2.693522e-02 -4.052775e-03 0.000000e+00
      vertex   2.693522e-02 -4.052775e-03 3.000000e-03
      vertex   2.677050e-02 -4.667525e-03 0.000000e+00
    endloop
  endfacet
  facet normal 9.659258e-01 -2.588190e-01 0.000000e+00
    outer loop
      vertex   2.677050e-02 -4.667525e-03 0.000000e+00
      vertex   2.693522e-02 -4.052775e-03 3.000000e-03
      vertex   2.677050e-02 -4.667525e-03 3.000000e-03
    endloop
  endfacet
  facet normal 9.659258e-01 2.588190e-01 -0.000000e+00
    outer loop
      vertex   2.677050e-02 -4.667525e-03 0.000000e+00
      vertex   2.677050e-02 -4.667525e-03 3.000000e-03
      vertex   2.693522e-02 -5.282275e-03 0.000000e+00
    endloop
  endfacet
  facet normal 9.659258e-01 2.588190e-01 7.482991e-17
    outer loop
      vertex   2.693522e-02 -5.282275e-03 0.000000e+00
      vertex   2.677050e-02 -4.667525e-03 3.000000e-03
      vertex   2.693522e-02 -5.282275e-03 3.000000e-03
    endloop
  endfacet
  facet normal 7.071068e-01 7.071068e-01 2.044391e-16
    outer loop
      vertex   2.693522e-02 -5.282275e-03 0.000000e+00
      vertex   2.693522e-02 -5.282275e-03 3.000000e-03
      vertex   2.738525e-02 -5.732303e-03 0.000000e+00
    endloop
  endfacet
  facet normal 7.071068e-01 7.071068e-01 -0.000000e+00
    outer loop
      vertex   2.738525e-02 -5.732303e-03 0.000000e+00
      vertex   2.693522e-02 -5.282275e-03 3.000000e-03
      vertex   2.738525e-02 -5.732303e-03 3.000000e-03
    endloop
  endfacet
  facet normal 2.588190e-01 9.659258e-01 -0.000000e+00
    outer loop
      vertex   2.738525e-02 -5.732303e-03 0.000000e+00
      vertex   2.738525e-02 -5.732303e-03 3.000000e-03
      vertex   2.800000e-02 -5.897025e-03 0.000000e+00
    endloop
  endfacet
  facet normal 2.588190e-01 9.659258e-01 -0.000000e+00
    outer loop
      vertex   2.800000e-02 -5.897025e-03 0.000000e+00
      vertex   2.738525e-02 -5.732303e-03 3.000000e-03
      vertex   2.800000e-02 -5.897025e-03 3.000000e-03
    endloop
  endfacet
  facet normal -2.588190e-01 9.659258e-01 0.000000e+00
    outer loop
      vertex   2.800000e-02 -5.897025e-03 0.000000e+00
      vertex   2.800000e-02 -5.897025e-03 3.000000e-03
      vertex   2.861475e-02 -5.732303e-03 0.000000e+00
    endloop
  endfacet
  facet normal -2.588190e-01 9.659258e-01 0.000000e+00
    outer loop
      vertex   2.861475e-02 -5.732303e-03 0.000000e+00
      vertex   2.800000e-02 -5.897025e-03 3.000000e-03
      vertex   2.861475e-02 -5.732303e-03 3.000000e-03
    endloop
  endfacet
  facet normal -7.071068e-01 7.071068e-01 0.000000e+00
    outer loop
      vertex   2.861475e-02 -5.732303e-03 0.000000e+00
      vertex   2.861475e-02 -5.732303e-03 3.000000e-03
      vertex   2.906478e-02 -5.282275e-03 0.000000e+00
    endloop
  endfacet
  facet normal -7.071068e-01 7.071068e-01 -2.044391e-16
    outer loop
      vertex   2.906478e-02 -5.282275e-03 0.000000e+00
      vertex   2.861475e-02 -5.732303e-03 3.000000e-03
      vertex   2.906478e-02 -5.282275e-03 3.000000e-03
    endloop
  endfacet
  facet normal -9.659258e-01 2.588190e-01 -7.482991e-17
    outer loop
      vertex   2.906478e-02 -5.282275e-03 0.000000e+00
      vertex   2.906478e-02 -5.282275e-03 3.000000e-03
      vertex   2.922950e-02 -4.667525e-03 0.000000e+00
    endloop
  endfacet
  facet normal -9.659258e-01 2.588190e-01 0.000000e+00
    outer loop
      vertex   2.922950e-02 -4.667525e-03 0.000000e+00
      vertex   2.906478e-02 -5.282275e-03 3.000000e-03
      vertex   2.922950e-02 -4.667525e-03 3.000000e-03
    endloop
  endfacet
  facet normal -9.659258e-01 -2.588190e-01 0.000000e+00
    outer loop
      vertex   2.922950e-02 -4.667525e-03 0.000000e+00
      vertex   2.922950e-02 -4.667525e-03 3.000000e-03
      vertex   2.906478e-02 -4.052775e-03 0.000000e+00
    endloop
  endfacet
  facet normal -9.659258e-01 -2.588190e-01 7.482991e-17
    outer loop
      vertex   2.906478e-02 -4.052775e-03 0.000000e+00
      vertex   2.922950e-02 -4.667525e-03 3.000000e-03
      vertex   2.906478e-02 -4.052775e-03 3.000000e-03
    endloop
  endfacet
  facet normal -7.071068e-01 -7.071068e-01 2.044391e-16
    outer loop
      vertex   2.906478e-02 -4.052775e-03 0.000000e+00
      vertex   2.906478e-02 -4.052775e-03 3.000000e-03
      vertex   2.861475e-02 -3.602747e-03 0.000000e+00
    endloop
  endfacet
  facet normal -7.071068e-01 -7.071068e-01 -7.155369e-16
    outer loop
      vertex   2.861475e-02 -3.602747e-03 0.000000e+00
      vertex   2.906478e-02 -4.052775e-03 3.000000e-03
      vertex   2.861475e-02 -3.602747e-03 3.000000e-03
    endloop
  endfacet
  facet normal -2.588190e-01 -9.659258e-01 -1.596851e-16
    outer loop
      vertex   2.861475e-02 -3.602747e-03 0.000000e+00
      vertex   2.861475e-02 -3.602747e-03 3.000000e-03
      vertex   2.800000e-02 -3.438025e-03 0.000000e+00
    endloop
  endfacet
  facet normal -2.588190e-01 -9.659258e-01 0.000000e+00
    outer loop
      vertex   2.800000e-02 -3.438025e-03 0.000000e+00
      vertex   2.861475e-02 -3.602747e-03 3.000000e-03
      vertex   2.800000e-02 -3.438025e-03 3.000000e-03
    endloop
  endfacet
  facet normal 2.588190e-01 -9.659258e-01 0.000000e+00
    outer loop
      vertex   2.800000e-02 -3.438025e-03 0.000000e+00
      vertex   2.800000e-02 -3.438025e-03 3.000000e-03
      vertex   2.738525e-02 -3.602747e-03 0.000000e+00
    endloop
  endfacet
  facet normal 2.588190e-01 -9.659258e-01 1.596851e-16
    outer loop
      vertex   2.738525e-02 -3.602747e-03 0.000000e+00
      vertex   2.800000e-02 -3.438025e-03 3.000000e-03
      vertex   2.738525e-02 -3.602747e-03 3.000000e-03
    endloop
  endfacet
  facet normal 7.071068e-01 -7.071068e-01 7.155369e-16
    outer loop
      vertex   2.738525e-02 -3.602747e-03 0.000000e+00
      vertex   2.738525e-02 -3.602747e-03 3.000000e-03
      vertex   2.693522e-02 -4.052775e-03 0.000000e+00
    endloop
  endfacet
  facet normal 7.071068e-01 -7.071068e-01 -4.088782e-16
    outer loop
      vertex   2.693522e-02 -4.052775e-03 0.000000e+00
      vertex   2.738525e-02 -3.602747e-03 3.000000e-03
      vertex   2.693522e-02 -4.052775e-03 3.000000e-03
    endloop
  endfacet
  facet normal 9.708252e-01 -2.392869e-01 1.549584e-02
    outer loop
      vertex   -1.416730e-03 -3.925644e-02 0.000000e+00
      vertex   -1.553507e-03 -3.961709e-02 3.000000e-03
      vertex   -1.600000e-03 -4.000000e-02 0.000000e+00
    endloop
  endfacet
  facet normal 9.998799e-01 8.524866e-16 -1.549584e-02
    outer loop
      vertex   -1.600000e-03 -4.000000e-02 0.000000e+00
      vertex   -1.553507e-03 -3.961709e-02 3.000000e-03
      vertex   -1.553507e-03 -4.038291e-02 3.000000e-03
    endloop
  endfacet
  facet normal 9.708252e-01 2.392869e-01 1.549584e-02
    outer loop
      vertex   -1.600000e-03 -4.000000e-02 0.000000e+00
      vertex   -1.553507e-03 -4.038291e-02 3.000000e-03
      vertex   -1.416730e-03 -4.074356e-02 0.000000e+00
    endloop
  endfacet
  facet normal 8.853497e-01 4.646674e-01 -1.549584e-02
    outer loop
      vertex   -1.416730e-03 -4.074356e-02 0.000000e+00
      vertex   -1.553507e-03 -4.038291e-02 3.000000e-03
      vertex   -1.197617e-03 -4.106100e-02 3.000000e-03
    endloop
  endfacet
  facet normal 7.484209e-01 6.630430e-01 1.549584e-02
    outer loop
      vertex   -1.416730e-03 -4.074356e-02 0.000000e+00
      vertex   -1.197617e-03 -4.106100e-02 3.000000e-03
      vertex   -9.089036e-04 -4.131677e-02 0.000000e+00
    endloop
  endfacet
  facet normal 5.679965e-01 8.228851e-01 -1.549584e-02
    outer loop
      vertex   -9.089036e-04 -4.131677e-02 0.000000e+00
      vertex   -1.197617e-03 -4.106100e-02 3.000000e-03
      vertex   -5.673678e-04 -4.149603e-02 3.000000e-03
    endloop
  endfacet
  facet normal 3.545623e-01 9.349040e-01 1.549584e-02
    outer loop
      vertex   -9.089036e-04 -4.131677e-02 0.000000e+00
      vertex   -5.673678e-04 -4.149603e-02 3.000000e-03
      vertex   -1.928587e-04 -4.158833e-02 0.000000e+00
    endloop
  endfacet
  facet normal 1.205222e-01 9.925897e-01 -1.549584e-02
    outer loop
      vertex   -1.928587e-04 -4.158833e-02 0.000000e+00
      vertex   -5.673678e-04 -4.149603e-02 3.000000e-03
      vertex   1.928587e-04 -4.158833e-02 3.000000e-03
    endloop
  endfacet
  facet normal -1.205222e-01 9.925897e-01 1.549584e-02
    outer loop
      vertex   -1.928587e-04 -4.158833e-02 0.000000e+00
      vertex   1.928587e-04 -4.158833e-02 3.000000e-03
      vertex   5.673678e-04 -4.149603e-02 0.000000e+00
    endloop
  endfacet
  facet normal -3.545623e-01 9.349040e-01 -1.549584e-02
    outer loop
      vertex   5.673678e-04 -4.149603e-02 0.000000e+00
      vertex   1.928587e-04 -4.158833e-02 3.000000e-03
      vertex   9.089036e-04 -4.131677e-02 3.000000e-03
    endloop
  endfacet
  facet normal -5.679965e-01 8.228851e-01 1.549584e-02
    outer loop
      vertex   5.673678e-04 -4.149603e-02 0.000000e+00
      vertex   9.089036e-04 -4.131677e-02 3.000000e-03
      vertex   1.197617e-03 -4.106100e-02 0.000000e+00
    endloop
  endfacet
  facet normal -7.484209e-01 6.630430e-01 -1.549584e-02
    outer loop
      vertex   1.197617e-03 -4.106100e-02 0.000000e+00
      vertex   9.089036e-04 -4.131677e-02 3.000000e-03
      vertex   1.416730e-03 -4.074356e-02 3.000000e-03
    endloop
  endfacet
  facet normal -8.853497e-01 4.646674e-01 1.549584e-02
    outer loop
      vertex   1.197617e-03 -4.106100e-02 0.000000e+00
      vertex   1.416730e-03 -4.074356e-02 3.000000e-03
      vertex   1.553507e-03 -4.038291e-02 0.000000e+00
    endloop
  endfacet
  facet normal -9.708252e-01 2.392869e-01 -1.549584e-02
    outer loop
      vertex   1.553507e-03 -4.038291e-02 0.000000e+00
      vertex   1.416730e-03 -4.074356e-02 3.000000e-03
      vertex   1.600000e-03 -4.000000e-02 3.000000e-03
    endloop
  endfacet
  facet normal -9.998799e-01 2.831177e-16 1.549584e-02
    outer loop
      vertex   1.553507e-03 -4.038291e-02 0.000000e+00
      vertex   1.600000e-03 -4.000000e-02 3.000000e-03
      vertex   1.553507e-03 -3.961709e-02 0.000000e+00
    endloop
  endfacet
  facet normal -9.708252e-01 -2.392869e-01 -1.549584e-02
    outer loop
      vertex   1.553507e-03 -3.961709e-02 0.000000e+00
      vertex   1.600000e-03 -4.000000e-02 3.000000e-03
      vertex   1.416730e-03 -3.925644e-02 3.000000e-03
    endloop
  endfacet
  facet normal -8.853497e-01 -4.646674e-01 1.549584e-02
    outer loop
      vertex   1.553507e-03 -3.961709e-02 0.000000e+00
      vertex   1.416730e-03 -3.925644e-02 3.000000e-03
      vertex   1.197617e-03 -3.893900e-02 0.000000e+00
    endloop
  endfacet
  facet normal -7.484209e-01 -6.630430e-01 -1.549584e-02
    outer loop
      vertex   1.197617e-03 -3.893900e-02 0.000000e+00
      vertex   1.416730e-03 -3.925644e-02 3.000000e-03
      vertex   9.089036e-04 -3.868323e-02 3.000000e-03
    endloop
  endfacet
  facet normal -5.679965e-01 -8.228851e-01 1.549584e-02
    outer loop
      vertex   1.197617e-03 -3.893900e-02 0.000000e+00
      vertex   9.089036e-04 -3.868323e-02 3.000000e-03
      vertex   5.673678e-04 -3.850397e-02 0.000000e+00
    endloop
  endfacet
  facet normal -3.545623e-01 -9.349040e-01 -1.549584e-02
    outer loop
      vertex   5.673678e-04 -3.850397e-02 0.000000e+00
      vertex   9.089036e-04 -3.868323e-02 3.000000e-03
      vertex   1.928587e-04 -3.841167e-02 3.000000e-03
    endloop
  endfacet
  facet normal -1.205222e-01 -9.925897e-01 1.549584e-02
    outer loop
      vertex   5.673678e-04 -3.850397e-02 0.000000e+00
      vertex   1.928587e-04 -3.841167e-02 3.000000e-03
      vertex   -1.928587e-04 -3.841167e-02 0.000000e+00
    endloop
  endfacet
  facet normal 1.205222e-01 -9.925897e-01 -1.549584e-02
    outer loop
      vertex   -1.928587e-04 -3.841167e-02 0.000000e+00
      vertex   1.928587e-04 -3.841167e-02 3.000000e-03
      vertex   -5.673678e-04 -3.850397e-02 3.000000e-03
    endloop
  endfacet
  facet normal 3.545623e-01 -9.349040e-01 1.549584e-02
    outer loop
      vertex   -1.928587e-04 -3.841167e-02 0.000000e+00
      vertex   -5.673678e-04 -3.850397e-02 3.000000e-03
      vertex   -9.089036e-04 -3.868323e-02 0.000000e+00
    endloop
  endfacet
  facet normal 5.679965e-01 -8.228851e-01 -1.549584e-02
    outer loop
      vertex   -9.089036e-04 -3.868323e-02 0.000000e+00
      vertex   -5.673678e-04 -3.850397e-02 3.000000e-03
      vertex   -1.197617e-03 -3.893900e-02 3.000000e-03
    endloop
  endfacet
  facet normal 7.484209e-01 -6.630430e-01 1.549584e-02
    outer loop
      vertex   -9.089036e-04 -3.868323e-02 0.000000e+00
      vertex   -1.197617e-03 -3.893900e-02 3.000000e-03
      vertex   -1.416730e-03 -3.925644e-02 0.000000e+00
    endloop
  endfacet
  facet normal 8.853497e-01 -4.646674e-01 -1.549584e-02
    outer loop
      vertex   -1.416730e-03 -3.925644e-02 0.000000e+00
      vertex   -1.197617e-03 -3.893900e-02 3.000000e-03
      vertex   -1.553507e-03 -3.961709e-02 3.000000e-03
    endloop
  endfacet
  facet normal 9.708252e-01 -2.392869e-01 1.549584e-02
    outer loop
      vertex   -1.416730e-03 -9.256443e-03 0.000000e+00
      vertex   -1.553507e-03 -9.617095e-03 3.000000e-03
      vertex   -1.600000e-03 -1.000000e-02 0.000000e+00
    endloop
  endfacet
  facet normal 9.998799e-01 8.524866e-16 -1.549584e-02
    outer loop
      vertex   -1.600000e-03 -1.000000e-02 0.000000e+00
      vertex   -1.553507e-03 -9.617095e-03 3.000000e-03
      vertex   -1.553507e-03 -1.038291e-02 3.000000e-03
    endloop
  endfacet
  facet normal 9.708252e-01 2.392869e-01 1.549584e-02
    outer loop
      vertex   -1.600000e-03 -1.000000e-02 0.000000e+00
      vertex   -1.553507e-03 -1.038291e-02 3.000000e-03
      vertex   -1.416730e-03 -1.074356e-02 0.000000e+00
    endloop
  endfacet
  facet normal 8.853497e-01 4.646674e-01 -1.549584e-02
    outer loop
      vertex   -1.416730e-03 -1.074356e-02 0.000000e+00
      vertex   -1.553507e-03 -1.038291e-02 3.000000e-03
      vertex   -1.197617e-03 -1.106100e-02 3.000000e-03
    endloop
  endfacet
  facet normal 7.484209e-01 6.630430e-01 1.549584e-02
    outer loop
      vertex   -1.416730e-03 -1.074356e-02 0.000000e+00
      vertex   -1.197617e-03 -1.106100e-02 3.000000e-03
      vertex   -9.089036e-04 -1.131677e-02 0.000000e+00
    endloop
  endfacet
  facet normal 5.679965e-01 8.228851e-01 -1.549584e-02
    outer loop
      vertex   -9.089036e-04 -1.131677e-02 0.000000e+00
      vertex   -1.197617e-03 -1.106100e-02 3.000000e-03
      vertex   -5.673678e-04 -1.149603e-02 3.000000e-03
    endloop
  endfacet
  facet normal 3.545623e-01 9.349040e-01 1.549584e-02
    outer loop
      vertex   -9.089036e-04 -1.131677e-02 0.000000e+00
      vertex   -5.673678e-04 -1.149603e-02 3.000000e-03
      vertex   -1.928587e-04 -1.158833e-02 0.000000e+00
    endloop
  endfacet
  facet normal 1.205222e-01 9.925897e-01 -1.549584e-02
    outer loop
      vertex   -1.928587e-04 -1.158833e-02 0.000000e+00
      vertex   -5.673678e-04 -1.149603e-02 3.000000e-03
      vertex   1.928587e-04 -1.158833e-02 3.000000e-03
    endloop
  endfacet
  facet normal -1.205222e-01 9.925897e-01 1.549584e-02
    outer loop
      vertex   -1.928587e-04 -1.158833e-02 0.000000e+00
      vertex   1.928587e-04 -1.158833e-02 3.000000e-03
      vertex   5.673678e-04 -1.149603e-02 0.000000e+00
    endloop
  endfacet
  facet normal -3.545623e-01 9.349040e-01 -1.549584e-02
    outer loop
      vertex   5.673678e-04 -1.149603e-02 0.000000e+00
      vertex   1.928587e-04 -1.158833e-02 3.000000e-03
      vertex   9.089036e-04 -1.131677e-02 3.000000e-03
    endloop
  endfacet
  facet normal -5.679965e-01 8.228851e-01 1.549584e-02
    outer loop
      vertex   5.673678e-04 -1.149603e-02 0.000000e+00
      vertex   9.089036e-04 -1.131677e-02 3.000000e-03
      vertex   1.197617e-03 -1.106100e-02 0.000000e+00
    endloop
  endfacet
  facet normal -7.484209e-01 6.630430e-01 -1.549584e-02
    outer loop
      vertex   1.197617e-03 -1.106100e-02 0.000000e+00
      vertex   9.089036e-04 -1.131677e-02 3.000000e-03
      vertex   1.416730e-03 -1.074356e-02 3.000000e-03
    endloop
  endfacet
  facet normal -8.853497e-01 4.646674e-01 1.549584e-02
    outer loop
      vertex   1.197617e-03 -1.106100e-02 0.000000e+00
      vertex   1.416730e-03 -1.074356e-02 3.000000e-03
      vertex   1.553507e-03 -1.038291e-02 0.000000e+00
    endloop
  endfacet
  facet normal -9.708252e-01 2.392869e-01 -1.549584e-02
    outer loop
      vertex   1.553507e-03 -1.038291e-02 0.000000e+00
      vertex   1.416730e-03 -1.074356e-02 3.000000e-03
      vertex   1.600000e-03 -1.000000e-02 3.000000e-03
    endloop
  endfacet
  facet normal -9.998799e-01 2.831177e-16 1.549584e-02
    outer loop
      vertex   1.553507e-03 -1.038291e-02 0.000000e+00
      vertex   1.600000e-03 -1.000000e-02 3.000000e-03
      vertex   1.553507e-03 -9.617095e-03 0.000000e+00
    endloop
  endfacet
  facet normal -9.708252e-01 -2.392869e-01 -1.549584e-02
    outer loop
      vertex   1.553507e-03 -9.617095e-03 0.000000e+00
      vertex   1.600000e-03 -1.000000e-02 3.000000e-03
      vertex   1.416730e-03 -9.256443e-03 3.000000e-03
    endloop
  endfacet
  facet normal -8.853497e-01 -4.646674e-01 1.549584e-02
    outer loop
      vertex   1.553507e-03 -9.617095e-03 0.000000e+00
      vertex   1.416730e-03 -9.256443e-03 3.000000e-03
      vertex   1.197617e-03 -8.939004e-03 0.000000e+00
    endloop
  endfacet
  facet normal -7.484209e-01 -6.630430e-01 -1.549584e-02
    outer loop
      vertex   1.197617e-03 -8.939004e-03 0.000000e+00
      vertex   1.416730e-03 -9.256443e-03 3.000000e-03
      vertex   9.089036e-04 -8.683226e-03 3.000000e-03
    endloop
  endfacet
  facet normal -5.679965e-01 -8.228851e-01 1.549584e-02
    outer loop
      vertex   1.197617e-03 -8.939004e-03 0.000000e+00
      vertex   9.089036e-04 -8.683226e-03 3.000000e-03
      vertex   5.673678e-04 -8.503974e-03 0.000000e+00
    endloop
  endfacet
  facet normal -3.545623e-01 -9.349040e-01 -1.549584e-02
    outer loop
      vertex   5.673678e-04 -8.503974e-03 0.000000e+00
      vertex   9.089036e-04 -8.683226e-03 3.000000e-03
      vertex   1.928587e-04 -8.411666e-03 3.000000e-03
    endloop
  endfacet
  facet normal -1.205222e-01 -9.925897e-01 1.549584e-02
    outer loop
      vertex   5.673678e-04 -8.503974e-03 0.000000e+00
      vertex   1.928587e-04 -8.411666e-03 3.000000e-03
      vertex   -1.928587e-04 -8.411666e-03 0.000000e+00
    endloop
  endfacet
  facet normal 1.205222e-01 -9.925897e-01 -1.549584e-02
    outer loop
      vertex   -1.928587e-04 -8.411666e-03 0.000000e+00
      vertex   1.928587e-04 -8.411666e-03 3.000000e-03
      vertex   -5.673678e-04 -8.503974e-03 3.000000e-03
    endloop
  endfacet
  facet normal 3.545623e-01 -9.349040e-01 1.549584e-02
    outer loop
      vertex   -1.928587e-04 -8.411666e-03 0.000000e+00
      vertex   -5.673678e-04 -8.503974e-03 3.000000e-03
      vertex   -9.089036e-04 -8.683226e-03 0.000000e+00
    endloop
  endfacet
  facet normal 5.679965e-01 -8.228851e-01 -1.549584e-02
    outer loop
      vertex   -9.089036e-04 -8.683226e-03 0.000000e+00
      vertex   -5.673678e-04 -8.503974e-03 3.000000e-03
      vertex   -1.197617e-03 -8.939004e-03 3.000000e-03
    endloop
  endfacet
  facet normal 7.484209e-01 -6.630430e-01 1.549584e-02
    outer loop
      vertex   -9.089036e-04 -8.683226e-03 0.000000e+00
      vertex   -1.197617e-03 -8.939004e-03 3.000000e-03
      vertex   -1.416730e-03 -9.256443e-03 0.000000e+00
    endloop
  endfacet
  facet normal 8.853497e-01 -4.646674e-01 -1.549584e-02
    outer loop
      vertex   -1.416730e-03 -9.256443e-03 0.000000e+00
      vertex   -1.197617e-03 -8.939004e-03 3.000000e-03
      vertex   -1.553507e-03 -9.617095e-03 3.000000e-03
    endloop
  endfacet
  facet normal -1.982541e-16 1.000000e+00 4.585547e-31
    outer loop
      vertex   3.500000e-02 5.000000e-02 0.000000e+00
      vertex   -3.500000e-02 5.000000e-02 0.000000e+00
      vertex   3.500000e-02 5.000000e-02 3.000000e-03
    endloop
  endfacet
  facet normal -1.982541e-16 1.000000e+00 0.000000e+00
    outer loop
      vertex   3.500000e-02 5.000000e-02 3.000000e-03
      vertex   -3.500000e-02 5.000000e-02 0.000000e+00
      vertex   -3.500000e-02 5.000000e-02 3.000000e-03
    endloop
  endfacet
  facet normal 1.000000e+00 0.000000e+00 -0.000000e+00
    outer loop
      vertex   3.500000e-02 -5.000000e-02 0.000000e+00
      vertex   3.500000e-02 5.000000e-02 0.000000e+00
      vertex   3.500000e-02 -5.000000e-02 3.000000e-03
    endloop
  endfacet
  facet normal 1.000000e+00 -6.938894e-17 -2.312965e-15
    outer loop
      vertex   3.500000e-02 -5.000000e-02 3.000000e-03
      vertex   3.500000e-02 5.000000e-02 0.000000e+00
      vertex   3.500000e-02 5.000000e-02 3.000000e-03
    endloop
  endfacet
  facet normal 0.000000e+00 -1.000000e+00 -2.312965e-15
    outer loop
      vertex   -3.500000e-02 -5.000000e-02 0.000000e+00
      vertex   3.500000e-02 -5.000000e-02 0.000000e+00
      vertex   -3.500000e-02 -5.000000e-02 3.000000e-03
    endloop
  endfacet
  facet normal 0.000000e+00 -1.000000e+00 -2.312965e-15
    outer loop
      vertex   -3.500000e-02 -5.000000e-02 3.000000e-03
      vertex   3.500000e-02 -5.000000e-02 0.000000e+00
      vertex   3.500000e-02 -5.000000e-02 3.000000e-03
    endloop
  endfacet
  facet normal -1.000000e+00 2.081668e-16 0.000000e+00
    outer loop
      vertex   -3.500000e-02 5.000000e-02 0.000000e+00
      vertex   -3.500000e-02 -5.000000e-02 0.000000e+00
      vertex   -3.500000e-02 5.000000e-02 3.000000e-03
    endloop
  endfacet
  facet normal -1.000000e+00 2.081668e-16 1.283953e-30
    outer loop
      vertex   -3.500000e-02 5.000000e-02 3.000000e-03
      vertex   -3.500000e-02 -5.000000e-02 0.000000e+00
      vertex   -3.500000e-02 -5.000000e-02 3.000000e-03
    endloop
  endfacet
  facet normal -0.000000e+00 0.000000e+00 1.000000e+00
    outer loop
      vertex   -2.693522e-02 -5.282275e-03 3.000000e-03
      vertex   -1.553507e-03 -1.038291e-02 3.000000e-03
      vertex   -2.677050e-02 -4.667525e-03 3.000000e-03
    endloop
  endfacet
  facet normal 0.000000e+00 0.000000e+00 1.000000e+00
    outer loop
      vertex   -2.677050e-02 -4.667525e-03 3.000000e-03
      vertex   -1.553507e-03 -1.038291e-02 3.000000e-03
      vertex   -1.553507e-03 -9.617095e-03 3.000000e-03
    endloop
  endfacet
  facet normal -0.000000e+00 -0.000000e+00 1.000000e+00
    outer loop
      vertex   -2.677050e-02 -4.667525e-03 3.000000e-03
      vertex   -1.553507e-03 -9.617095e-03 3.000000e-03
      vertex   -2.693522e-02 -4.052775e-03 3.000000e-03
    endloop
  endfacet
  facet normal 0.000000e+00 0.000000e+00 1.000000e+00
    outer loop
      vertex   -2.693522e-02 -4.052775e-03 3.000000e-03
      vertex   -1.553507e-03 -9.617095e-03 3.000000e-03
      vertex   -1.197617e-03 -8.939004e-03 3.000000e-03
    endloop
  endfacet
  facet normal -0.000000e+00 0.000000e+00 1.000000e+00
    outer loop
      vertex   -2.693522e-02 -4.052775e-03 3.000000e-03
      vertex   -1.197617e-03 -8.939004e-03 3.000000e-03
      vertex   -2.693522e-02 2.471773e-02 3.000000e-03
    endloop
  endfacet
  facet normal -0.000000e+00 0.000000e+00 1.000000e+00
    outer loop
      vertex   -2.693522e-02 2.471773e-02 3.000000e-03
      vertex   -1.197617e-03 -8.939004e-03 3.000000e-03
      vertex   -2.677050e-02 2.533248e-02 3.000000e-03
    endloop
  endfacet
  facet normal 0.000000e+00 0.000000e+00 1.000000e+00
    outer loop
      vertex   -2.677050e-02 2.533248e-02 3.000000e-03
      vertex   -1.197617e-03 -8.939004e-03 3.000000e-03
      vertex   -5.673678e-04 -8.503974e-03 3.000000e-03
    endloop
  endfacet
  facet normal 0.000000e+00 0.000000e+00 1.000000e+00
    outer loop
      vertex   -2.677050e-02 2.533248e-02 3.000000e-03
      vertex   -5.673678e-04 -8.503974e-03 3.000000e-03
      vertex   1.928587e-04 -8.411666e-03 3.000000e-03
    endloop
  endfacet
  facet normal 0.000000e+00 0.000000e+00 1.000000e+00
    outer loop
      vertex   -1.553507e-03 -1.038291e-02 3.000000e-03
      vertex   -2.693522e-02 -5.282275e-03 3.000000e-03
      vertex   -1.553507e-03 -3.961709e-02 3.000000e-03
    endloop
  endfacet
  facet normal 0.000000e+00 0.000000e+00 1.000000e+00
    outer loop
      vertex   -1.553507e-03 -3.961709e-02 3.000000e-03
      vertex   -2.693522e-02 -5.282275e-03 3.000000e-03
      vertex   -2.738525e-02 -5.732303e-03 3.000000e-03
    endloop
  endfacet
  facet normal 0.000000e+00 0.000000e+00 1.000000e+00
    outer loop
      vertex   -1.553507e-03 -3.961709e-02 3.000000e-03
      vertex   -2.738525e-02 -5.732303e-03 3.000000e-03
      vertex   -3.500000e-02 -5.000000e-02 3.000000e-03
    endloop
  endfacet
  facet normal 0.000000e+00 0.000000e+00 1.000000e+00
    outer loop
      vertex   -3.500000e-02 -5.000000e-02 3.000000e-03
      vertex   -2.738525e-02 -5.732303e-03 3.000000e-03
      vertex   -2.800000e-02 -5.897025e-03 3.000000e-03
    endloop
  endfacet
  facet normal 0.000000e+00 0.000000e+00 1.000000e+00
    outer loop
      vertex   -3.500000e-02 -5.000000e-02 3.000000e-03
      vertex   -2.800000e-02 -5.897025e-03 3.000000e-03
      vertex   -2.861475e-02 -5.732303e-03 3.000000e-03
    endloop
  endfacet
  facet normal 0.000000e+00 0.000000e+00 1.000000e+00
    outer loop
      vertex   -2.861475e-02 -5.732303e-03 3.000000e-03
      vertex   -2.906478e-02 -5.282275e-03 3.000000e-03
      vertex   -3.500000e-02 -5.000000e-02 3.000000e-03
    endloop
  endfacet
  facet normal 0.000000e+00 0.000000e+00 1.000000e+00
    outer loop
      vertex   -3.500000e-02 -5.000000e-02 3.000000e-03
      vertex   -2.906478e-02 -5.282275e-03 3.000000e-03
      vertex   -2.922950e-02 -4.667525e-03 3.000000e-03
    endloop
  endfacet
  facet normal 0.000000e+00 0.000000e+00 1.000000e+00
    outer loop
      vertex   -3.500000e-02 -5.000000e-02 3.000000e-03
      vertex   -2.922950e-02 -4.667525e-03 3.000000e-03
      vertex   -3.500000e-02 5.000000e-02 3.000000e-03
    endloop
  endfacet
  facet normal 0.000000e+00 0.000000e+00 1.000000e+00
    outer loop
      vertex   -3.500000e-02 5.000000e-02 3.000000e-03
      vertex   -2.922950e-02 -4.667525e-03 3.000000e-03
      vertex   -2.922950e-02 2.533248e-02 3.000000e-03
    endloop
  endfacet
  facet normal 0.000000e+00 0.000000e+00 1.000000e+00
    outer loop
      vertex   -3.500000e-02 5.000000e-02 3.000000e-03
      vertex   -2.922950e-02 2.533248e-02 3.000000e-03
      vertex   -2.906478e-02 2.594723e-02 3.000000e-03
    endloop
  endfacet
  facet normal 0.000000e+00 0.000000e+00 1.000000e+00
    outer loop
      vertex   -2.922950e-02 2.533248e-02 3.000000e-03
      vertex   -2.922950e-02 -4.667525e-03 3.000000e-03
      vertex   -2.906478e-02 2.471773e-02 3.000000e-03
    endloop
  endfacet
  facet normal 0.000000e+00 0.000000e+00 1.000000e+00
    outer loop
      vertex   -2.906478e-02 2.471773e-02 3.000000e-03
      vertex   -2.922950e-02 -4.667525e-03 3.000000e-03
      vertex   -2.906478e-02 -4.052775e-03 3.000000e-03
    endloop
  endfacet
  facet normal 0.000000e+00 0.000000e+00 1.000000e+00
    outer loop
      vertex   -2.906478e-02 2.471773e-02 3.000000e-03
      vertex   -2.906478e-02 -4.052775e-03 3.000000e-03
      vertex   -2.861475e-02 2.426770e-02 3.000000e-03
    endloop
  endfacet
  facet normal 0.000000e+00 0.000000e+00 1.000000e+00
    outer loop
      vertex   -2.861475e-02 2.426770e-02 3.000000e-03
      vertex   -2.906478e-02 -4.052775e-03 3.000000e-03
      vertex   -2.861475e-02 -3.602747e-03 3.000000e-03
    endloop
  endfacet
  facet normal 0.000000e+00 0.000000e+00 1.000000e+00
    outer loop
      vertex   -2.861475e-02 2.426770e-02 3.000000e-03
      vertex   -2.861475e-02 -3.602747e-03 3.000000e-03
      vertex   -2.800000e-02 2.410298e-02 3.000000e-03
    endloop
  endfacet
  facet normal 0.000000e+00 0.000000e+00 1.000000e+00
    outer loop
      vertex   -2.800000e-02 2.410298e-02 3.000000e-03
      vertex   -2.861475e-02 -3.602747e-03 3.000000e-03
      vertex   -2.800000e-02 -3.438025e-03 3.000000e-03
    endloop
  endfacet
  facet normal 0.000000e+00 0.000000e+00 1.000000e+00
    outer loop
      vertex   -2.800000e-02 2.410298e-02 3.000000e-03
      vertex   -2.800000e-02 -3.438025e-03 3.000000e-03
      vertex   -2.738525e-02 -3.602747e-03 3.000000e-03
    endloop
  endfacet
  facet normal -0.000000e+00 0.000000e+00 1.000000e+00
    outer loop
      vertex   -2.800000e-02 2.410298e-02 3.000000e-03
      vertex   -2.738525e-02 -3.602747e-03 3.000000e-03
      vertex   -2.738525e-02 2.426770e-02 3.000000e-03
    endloop
  endfacet
  facet normal 0.000000e+00 0.000000e+00 1.000000e+00
    outer loop
      vertex   -2.738525e-02 2.426770e-02 3.000000e-03
      vertex   -2.738525e-02 -3.602747e-03 3.000000e-03
      vertex   -2.693522e-02 -4.052775e-03 3.000000e-03
    endloop
  endfacet
  facet normal -0.000000e+00 0.000000e+00 1.000000e+00
    outer loop
      vertex   -2.738525e-02 2.426770e-02 3.000000e-03
      vertex   -2.693522e-02 -4.052775e-03 3.000000e-03
      vertex   -2.693522e-02 2.471773e-02 3.000000e-03
    endloop
  endfacet
  facet normal 0.000000e+00 -0.000000e+00 1.000000e+00
    outer loop
      vertex   -2.906478e-02 2.594723e-02 3.000000e-03
      vertex   -2.861475e-02 2.639725e-02 3.000000e-03
      vertex   -3.500000e-02 5.000000e-02 3.000000e-03
    endloop
  endfacet
  facet normal 0.000000e+00 0.000000e+00 1.000000e+00
    outer loop
      vertex   -3.500000e-02 5.000000e-02 3.000000e-03
      vertex   -2.861475e-02 2.639725e-02 3.000000e-03
      vertex   -2.800000e-02 2.656198e-02 3.000000e-03
    endloop
  endfacet
  facet normal 0.000000e+00 0.000000e+00 1.000000e+00
    outer loop
      vertex   -3.500000e-02 5.000000e-02 3.000000e-03
      vertex   -2.800000e-02 2.656198e-02 3.000000e-03
      vertex   -2.738525e-02 2.639725e-02 3.000000e-03
    endloop
  endfacet
  facet normal -0.000000e+00 -0.000000e+00 1.000000e+00
    outer loop
      vertex   -2.738525e-02 2.639725e-02 3.000000e-03
      vertex   -2.693522e-02 2.594723e-02 3.000000e-03
      vertex   -3.500000e-02 5.000000e-02 3.000000e-03
    endloop
  endfacet
  facet normal 0.000000e+00 0.000000e+00 1.000000e+00
    outer loop
      vertex   -3.500000e-02 5.000000e-02 3.000000e-03
      vertex   -2.693522e-02 2.594723e-02 3.000000e-03
      vertex   2.693522e-02 2.594723e-02 3.000000e-03
    endloop
  endfacet
  facet normal -0.000000e+00 0.000000e+00 1.000000e+00
    outer loop
      vertex   -3.500000e-02 5.000000e-02 3.000000e-03
      vertex   2.693522e-02 2.594723e-02 3.000000e-03
      vertex   3.500000e-02 5.000000e-02 3.000000e-03
    endloop
  endfacet
  facet normal 0.000000e+00 0.000000e+00 1.000000e+00
    outer loop
      vertex   3.500000e-02 5.000000e-02 3.000000e-03
      vertex   2.693522e-02 2.594723e-02 3.000000e-03
      vertex   2.738525e-02 2.639725e-02 3.000000e-03
    endloop
  endfacet
  facet normal 0.000000e+00 0.000000e+00 1.000000e+00
    outer loop
      vertex   3.500000e-02 5.000000e-02 3.000000e-03
      vertex   2.738525e-02 2.639725e-02 3.000000e-03
      vertex   2.800000e-02 2.656198e-02 3.000000e-03
    endloop
  endfacet
  facet normal 0.000000e+00 0.000000e+00 1.000000e+00
    outer loop
      vertex   2.693522e-02 2.594723e-02 3.000000e-03
      vertex   -2.693522e-02 2.594723e-02 3.000000e-03
      vertex   2.677050e-02 2.533248e-02 3.000000e-03
    endloop
  endfacet
  facet normal 0.000000e+00 0.000000e+00 1.000000e+00
    outer loop
      vertex   2.677050e-02 2.533248e-02 3.000000e-03
      vertex   -2.693522e-02 2.594723e-02 3.000000e-03
      vertex   -2.677050e-02 2.533248e-02 3.000000e-03
    endloop
  endfacet
  facet normal 0.000000e+00 0.000000e+00 1.000000e+00
    outer loop
      vertex   2.677050e-02 2.533248e-02 3.000000e-03
      vertex   -2.677050e-02 2.533248e-02 3.000000e-03
      vertex   1.928587e-04 -8.411666e-03 3.000000e-03
    endloop
  endfacet
  facet normal -0.000000e+00 0.000000e+00 1.000000e+00
    outer loop
      vertex   2.906478e-02 2.471773e-02 3.000000e-03
      vertex   2.922950e-02 -4.667525e-03 3.000000e-03
      vertex   2.922950e-02 2.533248e-02 3.000000e-03
    endloop
  endfacet
  facet normal -0.000000e+00 0.000000e+00 1.000000e+00
    outer loop
      vertex   2.922950e-02 2.533248e-02 3.000000e-03
      vertex   2.922950e-02 -4.667525e-03 3.000000e-03
      vertex   3.500000e-02 5.000000e-02 3.000000e-03
    endloop
  endfacet
  facet normal 0.000000e+00 -0.000000e+00 1.000000e+00
    outer loop
      vertex   2.922950e-02 2.533248e-02 3.000000e-03
      vertex   3.500000e-02 5.000000e-02 3.000000e-03
      vertex   2.906478e-02 2.594723e-02 3.000000e-03
    endloop
  endfacet
  facet normal 0.000000e+00 -0.000000e+00 1.000000e+00
    outer loop
      vertex   2.906478e-02 2.594723e-02 3.000000e-03
      vertex   3.500000e-02 5.000000e-02 3.000000e-03
      vertex   2.861475e-02 2.639725e-02 3.000000e-03
    endloop
  endfacet
  facet normal 0.000000e+00 -0.000000e+00 1.000000e+00
    outer loop
      vertex   2.861475e-02 2.639725e-02 3.000000e-03
      vertex   3.500000e-02 5.000000e-02 3.000000e-03
      vertex   2.800000e-02 2.656198e-02 3.000000e-03
    endloop
  endfacet
  facet normal 0.000000e+00 0.000000e+00 1.000000e+00
    outer loop
      vertex   2.922950e-02 -4.667525e-03 3.000000e-03
      vertex   2.906478e-02 2.471773e-02 3.000000e-03
      vertex   2.906478e-02 -4.052775e-03 3.000000e-03
    endloop
  endfacet
  facet normal 0.000000e+00 -0.000000e+00 1.000000e+00
    outer loop
      vertex   2.906478e-02 -4.052775e-03 3.000000e-03
      vertex   2.906478e-02 2.471773e-02 3.000000e-03
      vertex   2.861475e-02 2.426770e-02 3.000000e-03
    endloop
  endfacet
  facet normal 0.000000e+00 0.000000e+00 1.000000e+00
    outer loop
      vertex   2.906478e-02 -4.052775e-03 3.000000e-03
      vertex   2.861475e-02 2.426770e-02 3.000000e-03
      vertex   2.861475e-02 -3.602747e-03 3.000000e-03
    endloop
  endfacet
  facet normal 0.000000e+00 -0.000000e+00 1.000000e+00
    outer loop
      vertex   2.861475e-02 -3.602747e-03 3.000000e-03
      vertex   2.861475e-02 2.426770e-02 3.000000e-03
      vertex   2.800000e-02 2.410298e-02 3.000000e-03
    endloop
  endfacet
  facet normal 0.000000e+00 0.000000e+00 1.000000e+00
    outer loop
      vertex   2.861475e-02 -3.602747e-03 3.000000e-03
      vertex   2.800000e-02 2.410298e-02 3.000000e-03
      vertex   2.800000e-02 -3.438025e-03 3.000000e-03
    endloop
  endfacet
  facet normal 0.000000e+00 -0.000000e+00 1.000000e+00
    outer loop
      vertex   2.800000e-02 -3.438025e-03 3.000000e-03
      vertex   2.800000e-02 2.410298e-02 3.000000e-03
      vertex   2.738525e-02 -3.602747e-03 3.000000e-03
    endloop
  endfacet
  facet normal 0.000000e+00 0.000000e+00 1.000000e+00
    outer loop
      vertex   2.738525e-02 -3.602747e-03 3.000000e-03
      vertex   2.800000e-02 2.410298e-02 3.000000e-03
      vertex   2.738525e-02 2.426770e-02 3.000000e-03
    endloop
  endfacet
  facet normal 0.000000e+00 -0.000000e+00 1.000000e+00
    outer loop
      vertex   2.738525e-02 -3.602747e-03 3.000000e-03
      vertex   2.738525e-02 2.426770e-02 3.000000e-03
      vertex   2.693522e-02 -4.052775e-03 3.000000e-03
    endloop
  endfacet
  facet normal 0.000000e+00 0.000000e+00 1.000000e+00
    outer loop
      vertex   2.693522e-02 -4.052775e-03 3.000000e-03
      vertex   2.738525e-02 2.426770e-02 3.000000e-03
      vertex   2.693522e-02 2.471773e-02 3.000000e-03
    endloop
  endfacet
  facet normal 0.000000e+00 -0.000000e+00 1.000000e+00
    outer loop
      vertex   2.693522e-02 -4.052775e-03 3.000000e-03
      vertex   2.693522e-02 2.471773e-02 3.000000e-03
      vertex   1.416730e-03 -9.256443e-03 3.000000e-03
    endloop
  endfacet
  facet normal 0.000000e+00 -0.000000e+00 1.000000e+00
    outer loop
      vertex   1.416730e-03 -9.256443e-03 3.000000e-03
      vertex   2.693522e-02 2.471773e-02 3.000000e-03
      vertex   9.089036e-04 -8.683226e-03 3.000000e-03
    endloop
  endfacet
  facet normal 0.000000e+00 0.000000e+00 1.000000e+00
    outer loop
      vertex   9.089036e-04 -8.683226e-03 3.000000e-03
      vertex   2.693522e-02 2.471773e-02 3.000000e-03
      vertex   2.677050e-02 2.533248e-02 3.000000e-03
    endloop
  endfacet
  facet normal 0.000000e+00 -0.000000e+00 1.000000e+00
    outer loop
      vertex   9.089036e-04 -8.683226e-03 3.000000e-03
      vertex   2.677050e-02 2.533248e-02 3.000000e-03
      vertex   1.928587e-04 -8.411666e-03 3.000000e-03
    endloop
  endfacet
  facet normal 0.000000e+00 0.000000e+00 1.000000e+00
    outer loop
      vertex   3.500000e-02 5.000000e-02 3.000000e-03
      vertex   2.922950e-02 -4.667525e-03 3.000000e-03
      vertex   3.500000e-02 -5.000000e-02 3.000000e-03
    endloop
  endfacet
  facet normal 0.000000e+00 0.000000e+00 1.000000e+00
    outer loop
      vertex   3.500000e-02 -5.000000e-02 3.000000e-03
      vertex   2.922950e-02 -4.667525e-03 3.000000e-03
      vertex   2.906478e-02 -5.282275e-03 3.000000e-03
    endloop
  endfacet
  facet normal 0.000000e+00 0.000000e+00 1.000000e+00
    outer loop
      vertex   3.500000e-02 -5.000000e-02 3.000000e-03
      vertex   2.906478e-02 -5.282275e-03 3.000000e-03
      vertex   2.861475e-02 -5.732303e-03 3.000000e-03
    endloop
  endfacet
  facet normal 0.000000e+00 0.000000e+00 1.000000e+00
    outer loop
      vertex   2.861475e-02 -5.732303e-03 3.000000e-03
      vertex   2.800000e-02 -5.897025e-03 3.000000e-03
      vertex   3.500000e-02 -5.000000e-02 3.000000e-03
    endloop
  endfacet
  facet normal 0.000000e+00 0.000000e+00 1.000000e+00
    outer loop
      vertex   3.500000e-02 -5.000000e-02 3.000000e-03
      vertex   2.800000e-02 -5.897025e-03 3.000000e-03
      vertex   2.738525e-02 -5.732303e-03 3.000000e-03
    endloop
  endfacet
  facet normal 0.000000e+00 0.000000e+00 1.000000e+00
    outer loop
      vertex   3.500000e-02 -5.000000e-02 3.000000e-03
      vertex   2.738525e-02 -5.732303e-03 3.000000e-03
      vertex   1.600000e-03 -4.000000e-02 3.000000e-03
    endloop
  endfacet
  facet normal 0.000000e+00 -0.000000e+00 1.000000e+00
    outer loop
      vertex   1.600000e-03 -4.000000e-02 3.000000e-03
      vertex   2.738525e-02 -5.732303e-03 3.000000e-03
      vertex   1.416730e-03 -3.925644e-02 3.000000e-03
    endloop
  endfacet
  facet normal 0.000000e+00 0.000000e+00 1.000000e+00
    outer loop
      vertex   1.416730e-03 -3.925644e-02 3.000000e-03
      vertex   2.738525e-02 -5.732303e-03 3.000000e-03
      vertex   2.693522e-02 -5.282275e-03 3.000000e-03
    endloop
  endfacet
  facet normal 0.000000e+00 0.000000e+00 1.000000e+00
    outer loop
      vertex   1.416730e-03 -3.925644e-02 3.000000e-03
      vertex   2.693522e-02 -5.282275e-03 3.000000e-03
      vertex   1.416730e-03 -1.074356e-02 3.000000e-03
    endloop
  endfacet
  facet normal 0.000000e+00 0.000000e+00 1.000000e+00
    outer loop
      vertex   1.416730e-03 -1.074356e-02 3.000000e-03
      vertex   2.693522e-02 -5.282275e-03 3.000000e-03
      vertex   1.600000e-03 -1.000000e-02 3.000000e-03
    endloop
  endfacet
  facet normal 0.000000e+00 0.000000e+00 1.000000e+00
    outer loop
      vertex   1.600000e-03 -1.000000e-02 3.000000e-03
      vertex   2.693522e-02 -5.282275e-03 3.000000e-03
      vertex   2.677050e-02 -4.667525e-03 3.000000e-03
    endloop
  endfacet
  facet normal 0.000000e+00 -0.000000e+00 1.000000e+00
    outer loop
      vertex   1.600000e-03 -1.000000e-02 3.000000e-03
      vertex   2.677050e-02 -4.667525e-03 3.000000e-03
      vertex   1.416730e-03 -9.256443e-03 3.000000e-03
    endloop
  endfacet
  facet normal 0.000000e+00 0.000000e+00 1.000000e+00
    outer loop
      vertex   1.416730e-03 -9.256443e-03 3.000000e-03
      vertex   2.677050e-02 -4.667525e-03 3.000000e-03
      vertex   2.693522e-02 -4.052775e-03 3.000000e-03
    endloop
  endfacet
  facet normal 0.000000e+00 0.000000e+00 1.000000e+00
    outer loop
      vertex   1.600000e-03 -4.000000e-02 3.000000e-03
      vertex   1.416730e-03 -4.074356e-02 3.000000e-03
      vertex   3.500000e-02 -5.000000e-02 3.000000e-03
    endloop
  endfacet
  facet normal 0.000000e+00 0.000000e+00 1.000000e+00
    outer loop
      vertex   3.500000e-02 -5.000000e-02 3.000000e-03
      vertex   1.416730e-03 -4.074356e-02 3.000000e-03
      vertex   9.089036e-04 -4.131677e-02 3.000000e-03
    endloop
  endfacet
  facet normal 0.000000e+00 0.000000e+00 1.000000e+00
    outer loop
      vertex   3.500000e-02 -5.000000e-02 3.000000e-03
      vertex   9.089036e-04 -4.131677e-02 3.000000e-03
      vertex   1.928587e-04 -4.158833e-02 3.000000e-03
    endloop
  endfacet
  facet normal 0.000000e+00 0.000000e+00 1.000000e+00
    outer loop
      vertex   3.500000e-02 -5.000000e-02 3.000000e-03
      vertex   1.928587e-04 -4.158833e-02 3.000000e-03
      vertex   -3.500000e-02 -5.000000e-02 3.000000e-03
    endloop
  endfacet
  facet normal 0.000000e+00 0.000000e+00 1.000000e+00
    outer loop
      vertex   -3.500000e-02 -5.000000e-02 3.000000e-03
      vertex   1.928587e-04 -4.158833e-02 3.000000e-03
      vertex   -5.673678e-04 -4.149603e-02 3.000000e-03
    endloop
  endfacet
  facet normal 0.000000e+00 0.000000e+00 1.000000e+00
    outer loop
      vertex   -3.500000e-02 -5.000000e-02 3.000000e-03
      vertex   -5.673678e-04 -4.149603e-02 3.000000e-03
      vertex   -1.197617e-03 -4.106100e-02 3.000000e-03
    endloop
  endfacet
  facet normal 0.000000e+00 0.000000e+00 1.000000e+00
    outer loop
      vertex   -1.197617e-03 -4.106100e-02 3.000000e-03
      vertex   -1.553507e-03 -4.038291e-02 3.000000e-03
      vertex   -3.500000e-02 -5.000000e-02 3.000000e-03
    endloop
  endfacet
  facet normal 0.000000e+00 0.000000e+00 1.000000e+00
    outer loop
      vertex   -3.500000e-02 -5.000000e-02 3.000000e-03
      vertex   -1.553507e-03 -4.038291e-02 3.000000e-03
      vertex   -1.553507e-03 -3.961709e-02 3.000000e-03
    endloop
  endfacet
  facet normal 0.000000e+00 0.000000e+00 1.000000e+00
    outer loop
      vertex   -1.553507e-03 -3.961709e-02 3.000000e-03
      vertex   -1.197617e-03 -3.893900e-02 3.000000e-03
      vertex   -1.553507e-03 -1.038291e-02 3.000000e-03
    endloop
  endfacet
  facet normal 0.000000e+00 0.000000e+00 1.000000e+00
    outer loop
      vertex   -1.553507e-03 -1.038291e-02 3.000000e-03
      vertex   -1.197617e-03 -3.893900e-02 3.000000e-03
      vertex   -1.197617e-03 -1.106100e-02 3.000000e-03
    endloop
  endfacet
  facet normal 0.000000e+00 0.000000e+00 1.000000e+00
    outer loop
      vertex   -1.197617e-03 -1.106100e-02 3.000000e-03
      vertex   -1.197617e-03 -3.893900e-02 3.000000e-03
      vertex   -5.673678e-04 -3.850397e-02 3.000000e-03
    endloop
  endfacet
  facet normal 0.000000e+00 0.000000e+00 1.000000e+00
    outer loop
      vertex   -1.197617e-03 -1.106100e-02 3.000000e-03
      vertex   -5.673678e-04 -3.850397e-02 3.000000e-03
      vertex   -5.673678e-04 -1.149603e-02 3.000000e-03
    endloop
  endfacet
  facet normal 0.000000e+00 0.000000e+00 1.000000e+00
    outer loop
      vertex   -5.673678e-04 -1.149603e-02 3.000000e-03
      vertex   -5.673678e-04 -3.850397e-02 3.000000e-03
      vertex   1.928587e-04 -1.158833e-02 3.000000e-03
    endloop
  endfacet
  facet normal 0.000000e+00 0.000000e+00 1.000000e+00
    outer loop
      vertex   1.928587e-04 -1.158833e-02 3.000000e-03
      vertex   -5.673678e-04 -3.850397e-02 3.000000e-03
      vertex   1.928587e-04 -3.841167e-02 3.000000e-03
    endloop
  endfacet
  facet normal -0.000000e+00 0.000000e+00 1.000000e+00
    outer loop
      vertex   1.928587e-04 -1.158833e-02 3.000000e-03
      vertex   1.928587e-04 -3.841167e-02 3.000000e-03
      vertex   9.089036e-04 -1.131677e-02 3.000000e-03
    endloop
  endfacet
  facet normal 0.000000e+00 0.000000e+00 1.000000e+00
    outer loop
      vertex   9.089036e-04 -1.131677e-02 3.000000e-03
      vertex   1.928587e-04 -3.841167e-02 3.000000e-03
      vertex   9.089036e-04 -3.868323e-02 3.000000e-03
    endloop
  endfacet
  facet normal -0.000000e+00 0.000000e+00 1.000000e+00
    outer loop
      vertex   9.089036e-04 -1.131677e-02 3.000000e-03
      vertex   9.089036e-04 -3.868323e-02 3.000000e-03
      vertex   1.416730e-03 -1.074356e-02 3.000000e-03
    endloop
  endfacet
  facet normal 0.000000e+00 0.000000e+00 1.000000e+00
    outer loop
      vertex   1.416730e-03 -1.074356e-02 3.000000e-03
      vertex   9.089036e-04 -3.868323e-02 3.000000e-03
      vertex   1.416730e-03 -3.925644e-02 3.000000e-03
    endloop
  endfacet
  facet normal -0.000000e+00 0.000000e+00 -1.000000e+00
    outer loop
      vertex   -2.906478e-02 -5.282275e-03 0.000000e+00
      vertex   -3.500000e-02 -5.000000e-02 0.000000e+00
      vertex   -2.922950e-02 -4.667525e-03 0.000000e+00
    endloop
  endfacet
  facet normal -0.000000e+00 0.000000e+00 -1.000000e+00
    outer loop
      vertex   -2.922950e-02 -4.667525e-03 0.000000e+00
      vertex   -3.500000e-02 -5.000000e-02 0.000000e+00
      vertex   -3.500000e-02 5.000000e-02 0.000000e+00
    endloop
  endfacet
  facet normal 0.000000e+00 0.000000e+00 -1.000000e+00
    outer loop
      vertex   -2.922950e-02 -4.667525e-03 0.000000e+00
      vertex   -3.500000e-02 5.000000e-02 0.000000e+00
      vertex   -2.922950e-02 2.533248e-02 0.000000e+00
    endloop
  endfacet
  facet normal 0.000000e+00 0.000000e+00 -1.000000e+00
    outer loop
      vertex   -2.922950e-02 2.533248e-02 0.000000e+00
      vertex   -3.500000e-02 5.000000e-02 0.000000e+00
      vertex   -2.906478e-02 2.594723e-02 0.000000e+00
    endloop
  endfacet
  facet normal 0.000000e+00 0.000000e+00 -1.000000e+00
    outer loop
      vertex   -2.906478e-02 2.594723e-02 0.000000e+00
      vertex   -3.500000e-02 5.000000e-02 0.000000e+00
      vertex   -2.861475e-02 2.639725e-02 0.000000e+00
    endloop
  endfacet
  facet normal 0.000000e+00 0.000000e+00 -1.000000e+00
    outer loop
      vertex   -2.861475e-02 2.639725e-02 0.000000e+00
      vertex   -3.500000e-02 5.000000e-02 0.000000e+00
      vertex   -2.800000e-02 2.656198e-02 0.000000e+00
    endloop
  endfacet
  facet normal 0.000000e+00 0.000000e+00 -1.000000e+00
    outer loop
      vertex   -2.800000e-02 2.656198e-02 0.000000e+00
      vertex   -3.500000e-02 5.000000e-02 0.000000e+00
      vertex   -2.738525e-02 2.639725e-02 0.000000e+00
    endloop
  endfacet
  facet normal 0.000000e+00 0.000000e+00 -1.000000e+00
    outer loop
      vertex   -2.738525e-02 2.639725e-02 0.000000e+00
      vertex   -3.500000e-02 5.000000e-02 0.000000e+00
      vertex   -2.693522e-02 2.594723e-02 0.000000e+00
    endloop
  endfacet
  facet normal 0.000000e+00 0.000000e+00 -1.000000e+00
    outer loop
      vertex   -2.693522e-02 2.594723e-02 0.000000e+00
      vertex   -3.500000e-02 5.000000e-02 0.000000e+00
      vertex   3.500000e-02 5.000000e-02 0.000000e+00
    endloop
  endfacet
  facet normal 0.000000e+00 0.000000e+00 -1.000000e+00
    outer loop
      vertex   -2.693522e-02 2.594723e-02 0.000000e+00
      vertex   3.500000e-02 5.000000e-02 0.000000e+00
      vertex   2.693522e-02 2.594723e-02 0.000000e+00
    endloop
  endfacet
  facet normal 0.000000e+00 0.000000e+00 -1.000000e+00
    outer loop
      vertex   2.693522e-02 2.594723e-02 0.000000e+00
      vertex   3.500000e-02 5.000000e-02 0.000000e+00
      vertex   2.738525e-02 2.639725e-02 0.000000e+00
    endloop
  endfacet
  facet normal 0.000000e+00 0.000000e+00 -1.000000e+00
    outer loop
      vertex   2.738525e-02 2.639725e-02 0.000000e+00
      vertex   3.500000e-02 5.000000e-02 0.000000e+00
      vertex   2.800000e-02 2.656198e-02 0.000000e+00
    endloop
  endfacet
  facet normal 0.000000e+00 0.000000e+00 -1.000000e+00
    outer loop
      vertex   2.800000e-02 2.656198e-02 0.000000e+00
      vertex   3.500000e-02 5.000000e-02 0.000000e+00
      vertex   2.861475e-02 2.639725e-02 0.000000e+00
    endloop
  endfacet
  facet normal 0.000000e+00 0.000000e+00 -1.000000e+00
    outer loop
      vertex   2.861475e-02 2.639725e-02 0.000000e+00
      vertex   3.500000e-02 5.000000e-02 0.000000e+00
      vertex   2.906478e-02 2.594723e-02 0.000000e+00
    endloop
  endfacet
  facet normal 0.000000e+00 0.000000e+00 -1.000000e+00
    outer loop
      vertex   2.906478e-02 2.594723e-02 0.000000e+00
      vertex   3.500000e-02 5.000000e-02 0.000000e+00
      vertex   2.922950e-02 2.533248e-02 0.000000e+00
    endloop
  endfacet
  facet normal 0.000000e+00 0.000000e+00 -1.000000e+00
    outer loop
      vertex   2.922950e-02 2.533248e-02 0.000000e+00
      vertex   3.500000e-02 5.000000e-02 0.000000e+00
      vertex   2.922950e-02 -4.667525e-03 0.000000e+00
    endloop
  endfacet
  facet normal 0.000000e+00 -0.000000e+00 -1.000000e+00
    outer loop
      vertex   2.922950e-02 2.533248e-02 0.000000e+00
      vertex   2.922950e-02 -4.667525e-03 0.000000e+00
      vertex   2.906478e-02 2.471773e-02 0.000000e+00
    endloop
  endfacet
  facet normal 0.000000e+00 0.000000e+00 -1.000000e+00
    outer loop
      vertex   2.906478e-02 2.471773e-02 0.000000e+00
      vertex   2.922950e-02 -4.667525e-03 0.000000e+00
      vertex   2.906478e-02 -4.052775e-03 0.000000e+00
    endloop
  endfacet
  facet normal 0.000000e+00 -0.000000e+00 -1.000000e+00
    outer loop
      vertex   2.906478e-02 2.471773e-02 0.000000e+00
      vertex   2.906478e-02 -4.052775e-03 0.000000e+00
      vertex   2.861475e-02 2.426770e-02 0.000000e+00
    endloop
  endfacet
  facet normal 0.000000e+00 0.000000e+00 -1.000000e+00
    outer loop
      vertex   2.861475e-02 2.426770e-02 0.000000e+00
      vertex   2.906478e-02 -4.052775e-03 0.000000e+00
      vertex   2.861475e-02 -3.602747e-03 0.000000e+00
    endloop
  endfacet
  facet normal 0.000000e+00 -0.000000e+00 -1.000000e+00
    outer loop
      vertex   2.861475e-02 2.426770e-02 0.000000e+00
      vertex   2.861475e-02 -3.602747e-03 0.000000e+00
      vertex   2.800000e-02 2.410298e-02 0.000000e+00
    endloop
  endfacet
  facet normal 0.000000e+00 0.000000e+00 -1.000000e+00
    outer loop
      vertex   2.800000e-02 2.410298e-02 0.000000e+00
      vertex   2.861475e-02 -3.602747e-03 0.000000e+00
      vertex   2.800000e-02 -3.438025e-03 0.000000e+00
    endloop
  endfacet
  facet normal 0.000000e+00 -0.000000e+00 -1.000000e+00
    outer loop
      vertex   2.800000e-02 2.410298e-02 0.000000e+00
      vertex   2.800000e-02 -3.438025e-03 0.000000e+00
      vertex   2.738525e-02 -3.602747e-03 0.000000e+00
    endloop
  endfacet
  facet normal 0.000000e+00 -0.000000e+00 -1.000000e+00
    outer loop
      vertex   -2.906478e-02 -5.282275e-03 0.000000e+00
      vertex   -2.861475e-02 -5.732303e-03 0.000000e+00
      vertex   -3.500000e-02 -5.000000e-02 0.000000e+00
    endloop
  endfacet
  facet normal 0.000000e+00 0.000000e+00 -1.000000e+00
    outer loop
      vertex   -3.500000e-02 -5.000000e-02 0.000000e+00
      vertex   -2.861475e-02 -5.732303e-03 0.000000e+00
      vertex   -2.800000e-02 -5.897025e-03 0.000000e+00
    endloop
  endfacet
  facet normal 0.000000e+00 0.000000e+00 -1.000000e+00
    outer loop
      vertex   -3.500000e-02 -5.000000e-02 0.000000e+00
      vertex   -2.800000e-02 -5.897025e-03 0.000000e+00
      vertex   -2.738525e-02 -5.732303e-03 0.000000e+00
    endloop
  endfacet
  facet normal 0.000000e+00 -0.000000e+00 -1.000000e+00
    outer loop
      vertex   -2.693522e-02 -5.282275e-03 0.000000e+00
      vertex   -1.416730e-03 -3.925644e-02 0.000000e+00
      vertex   -2.738525e-02 -5.732303e-03 0.000000e+00
    endloop
  endfacet
  facet normal 0.000000e+00 0.000000e+00 -1.000000e+00
    outer loop
      vertex   -2.738525e-02 -5.732303e-03 0.000000e+00
      vertex   -1.416730e-03 -3.925644e-02 0.000000e+00
      vertex   -1.600000e-03 -4.000000e-02 0.000000e+00
    endloop
  endfacet
  facet normal 0.000000e+00 -0.000000e+00 -1.000000e+00
    outer loop
      vertex   -2.738525e-02 -5.732303e-03 0.000000e+00
      vertex   -1.600000e-03 -4.000000e-02 0.000000e+00
      vertex   -3.500000e-02 -5.000000e-02 0.000000e+00
    endloop
  endfacet
  facet normal 0.000000e+00 0.000000e+00 -1.000000e+00
    outer loop
      vertex   -3.500000e-02 -5.000000e-02 0.000000e+00
      vertex   -1.600000e-03 -4.000000e-02 0.000000e+00
      vertex   -1.416730e-03 -4.074356e-02 0.000000e+00
    endloop
  endfacet
  facet normal 0.000000e+00 0.000000e+00 -1.000000e+00
    outer loop
      vertex   -3.500000e-02 -5.000000e-02 0.000000e+00
      vertex   -1.416730e-03 -4.074356e-02 0.000000e+00
      vertex   -9.089036e-04 -4.131677e-02 0.000000e+00
    endloop
  endfacet
  facet normal 0.000000e+00 -0.000000e+00 -1.000000e+00
    outer loop
      vertex   -2.677050e-02 -4.667525e-03 0.000000e+00
      vertex   -1.600000e-03 -1.000000e-02 0.000000e+00
      vertex   -2.693522e-02 -5.282275e-03 0.000000e+00
    endloop
  endfacet
  facet normal 0.000000e+00 0.000000e+00 -1.000000e+00
    outer loop
      vertex   -2.693522e-02 -5.282275e-03 0.000000e+00
      vertex   -1.600000e-03 -1.000000e-02 0.000000e+00
      vertex   -1.416730e-03 -1.074356e-02 0.000000e+00
    endloop
  endfacet
  facet normal 0.000000e+00 0.000000e+00 -1.000000e+00
    outer loop
      vertex   -2.693522e-02 -5.282275e-03 0.000000e+00
      vertex   -1.416730e-03 -1.074356e-02 0.000000e+00
      vertex   -1.416730e-03 -3.925644e-02 0.000000e+00
    endloop
  endfacet
  facet normal 0.000000e+00 0.000000e+00 -1.000000e+00
    outer loop
      vertex   -1.416730e-03 -3.925644e-02 0.000000e+00
      vertex   -1.416730e-03 -1.074356e-02 0.000000e+00
      vertex   -9.089036e-04 -3.868323e-02 0.000000e+00
    endloop
  endfacet
  facet normal 0.000000e+00 0.000000e+00 -1.000000e+00
    outer loop
      vertex   -9.089036e-04 -3.868323e-02 0.000000e+00
      vertex   -1.416730e-03 -1.074356e-02 0.000000e+00
      vertex   -9.089036e-04 -1.131677e-02 0.000000e+00
    endloop
  endfacet
  facet normal 0.000000e+00 0.000000e+00 -1.000000e+00
    outer loop
      vertex   -9.089036e-04 -3.868323e-02 0.000000e+00
      vertex   -9.089036e-04 -1.131677e-02 0.000000e+00
      vertex   -1.928587e-04 -3.841167e-02 0.000000e+00
    endloop
  endfacet
  facet normal 0.000000e+00 0.000000e+00 -1.000000e+00
    outer loop
      vertex   -1.928587e-04 -3.841167e-02 0.000000e+00
      vertex   -9.089036e-04 -1.131677e-02 0.000000e+00
      vertex   -1.928587e-04 -1.158833e-02 0.000000e+00
    endloop
  endfacet
  facet normal 0.000000e+00 0.000000e+00 -1.000000e+00
    outer loop
      vertex   -1.928587e-04 -3.841167e-02 0.000000e+00
      vertex   -1.928587e-04 -1.158833e-02 0.000000e+00
      vertex   5.673678e-04 -3.850397e-02 0.000000e+00
    endloop
  endfacet
  facet normal 0.000000e+00 0.000000e+00 -1.000000e+00
    outer loop
      vertex   5.673678e-04 -3.850397e-02 0.000000e+00
      vertex   -1.928587e-04 -1.158833e-02 0.000000e+00
      vertex   5.673678e-04 -1.149603e-02 0.000000e+00
    endloop
  endfacet
  facet normal 0.000000e+00 0.000000e+00 -1.000000e+00
    outer loop
      vertex   5.673678e-04 -3.850397e-02 0.000000e+00
      vertex   5.673678e-04 -1.149603e-02 0.000000e+00
      vertex   1.197617e-03 -1.106100e-02 0.000000e+00
    endloop
  endfacet
  facet normal 0.000000e+00 0.000000e+00 -1.000000e+00
    outer loop
      vertex   -1.600000e-03 -1.000000e-02 0.000000e+00
      vertex   -2.677050e-02 -4.667525e-03 0.000000e+00
      vertex   -1.416730e-03 -9.256443e-03 0.000000e+00
    endloop
  endfacet
  facet normal 0.000000e+00 0.000000e+00 -1.000000e+00
    outer loop
      vertex   -1.416730e-03 -9.256443e-03 0.000000e+00
      vertex   -2.677050e-02 -4.667525e-03 0.000000e+00
      vertex   -2.693522e-02 -4.052775e-03 0.000000e+00
    endloop
  endfacet
  facet normal 0.000000e+00 0.000000e+00 -1.000000e+00
    outer loop
      vertex   -1.416730e-03 -9.256443e-03 0.000000e+00
      vertex   -2.693522e-02 -4.052775e-03 0.000000e+00
      vertex   -2.693522e-02 2.471773e-02 0.000000e+00
    endloop
  endfacet
  facet normal 0.000000e+00 -0.000000e+00 -1.000000e+00
    outer loop
      vertex   -2.693522e-02 2.471773e-02 0.000000e+00
      vertex   -2.693522e-02 -4.052775e-03 0.000000e+00
      vertex   -2.738525e-02 2.426770e-02 0.000000e+00
    endloop
  endfacet
  facet normal 0.000000e+00 0.000000e+00 -1.000000e+00
    outer loop
      vertex   -2.738525e-02 2.426770e-02 0.000000e+00
      vertex   -2.693522e-02 -4.052775e-03 0.000000e+00
      vertex   -2.738525e-02 -3.602747e-03 0.000000e+00
    endloop
  endfacet
  facet normal 0.000000e+00 -0.000000e+00 -1.000000e+00
    outer loop
      vertex   -2.738525e-02 2.426770e-02 0.000000e+00
      vertex   -2.738525e-02 -3.602747e-03 0.000000e+00
      vertex   -2.800000e-02 2.410298e-02 0.000000e+00
    endloop
  endfacet
  facet normal 0.000000e+00 0.000000e+00 -1.000000e+00
    outer loop
      vertex   -2.800000e-02 2.410298e-02 0.000000e+00
      vertex   -2.738525e-02 -3.602747e-03 0.000000e+00
      vertex   -2.800000e-02 -3.438025e-03 0.000000e+00
    endloop
  endfacet
  facet normal 0.000000e+00 -0.000000e+00 -1.000000e+00
    outer loop
      vertex   -2.800000e-02 2.410298e-02 0.000000e+00
      vertex   -2.800000e-02 -3.438025e-03 0.000000e+00
      vertex   -2.861475e-02 -3.602747e-03 0.000000e+00
    endloop
  endfacet
  facet normal -0.000000e+00 0.000000e+00 -1.000000e+00
    outer loop
      vertex   -2.800000e-02 2.410298e-02 0.000000e+00
      vertex   -2.861475e-02 -3.602747e-03 0.000000e+00
      vertex   -2.861475e-02 2.426770e-02 0.000000e+00
    endloop
  endfacet
  facet normal 0.000000e+00 -0.000000e+00 -1.000000e+00
    outer loop
      vertex   -2.861475e-02 2.426770e-02 0.000000e+00
      vertex   -2.861475e-02 -3.602747e-03 0.000000e+00
      vertex   -2.906478e-02 -4.052775e-03 0.000000e+00
    endloop
  endfacet
  facet normal -0.000000e+00 0.000000e+00 -1.000000e+00
    outer loop
      vertex   -2.861475e-02 2.426770e-02 0.000000e+00
      vertex   -2.906478e-02 -4.052775e-03 0.000000e+00
      vertex   -2.906478e-02 2.471773e-02 0.000000e+00
    endloop
  endfacet
  facet normal 0.000000e+00 -0.000000e+00 -1.000000e+00
    outer loop
      vertex   -2.906478e-02 2.471773e-02 0.000000e+00
      vertex   -2.906478e-02 -4.052775e-03 0.000000e+00
      vertex   -2.922950e-02 -4.667525e-03 0.000000e+00
    endloop
  endfacet
  facet normal -0.000000e+00 0.000000e+00 -1.000000e+00
    outer loop
      vertex   -2.906478e-02 2.471773e-02 0.000000e+00
      vertex   -2.922950e-02 -4.667525e-03 0.000000e+00
      vertex   -2.922950e-02 2.533248e-02 0.000000e+00
    endloop
  endfacet
  facet normal 0.000000e+00 0.000000e+00 -1.000000e+00
    outer loop
      vertex   -1.416730e-03 -9.256443e-03 0.000000e+00
      vertex   -2.693522e-02 2.471773e-02 0.000000e+00
      vertex   -9.089036e-04 -8.683226e-03 0.000000e+00
    endloop
  endfacet
  facet normal 0.000000e+00 0.000000e+00 -1.000000e+00
    outer loop
      vertex   -9.089036e-04 -8.683226e-03 0.000000e+00
      vertex   -2.693522e-02 2.471773e-02 0.000000e+00
      vertex   -2.677050e-02 2.533248e-02 0.000000e+00
    endloop
  endfacet
  facet normal 0.000000e+00 0.000000e+00 -1.000000e+00
    outer loop
      vertex   -9.089036e-04 -8.683226e-03 0.000000e+00
      vertex   -2.677050e-02 2.533248e-02 0.000000e+00
      vertex   -1.928587e-04 -8.411666e-03 0.000000e+00
    endloop
  endfacet
  facet normal 0.000000e+00 0.000000e+00 -1.000000e+00
    outer loop
      vertex   -1.928587e-04 -8.411666e-03 0.000000e+00
      vertex   -2.677050e-02 2.533248e-02 0.000000e+00
      vertex   2.677050e-02 2.533248e-02 0.000000e+00
    endloop
  endfacet
  facet normal 0.000000e+00 0.000000e+00 -1.000000e+00
    outer loop
      vertex   -1.928587e-04 -8.411666e-03 0.000000e+00
      vertex   2.677050e-02 2.533248e-02 0.000000e+00
      vertex   5.673678e-04 -8.503974e-03 0.000000e+00
    endloop
  endfacet
  facet normal 0.000000e+00 0.000000e+00 -1.000000e+00
    outer loop
      vertex   5.673678e-04 -8.503974e-03 0.000000e+00
      vertex   2.677050e-02 2.533248e-02 0.000000e+00
      vertex   1.197617e-03 -8.939004e-03 0.000000e+00
    endloop
  endfacet
  facet normal 0.000000e+00 0.000000e+00 -1.000000e+00
    outer loop
      vertex   1.197617e-03 -8.939004e-03 0.000000e+00
      vertex   2.677050e-02 2.533248e-02 0.000000e+00
      vertex   2.693522e-02 2.471773e-02 0.000000e+00
    endloop
  endfacet
  facet normal 0.000000e+00 0.000000e+00 -1.000000e+00
    outer loop
      vertex   1.197617e-03 -8.939004e-03 0.000000e+00
      vertex   2.693522e-02 2.471773e-02 0.000000e+00
      vertex   2.693522e-02 -4.052775e-03 0.000000e+00
    endloop
  endfacet
  facet normal 0.000000e+00 0.000000e+00 -1.000000e+00
    outer loop
      vertex   2.693522e-02 -4.052775e-03 0.000000e+00
      vertex   2.693522e-02 2.471773e-02 0.000000e+00
      vertex   2.738525e-02 2.426770e-02 0.000000e+00
    endloop
  endfacet
  facet normal 0.000000e+00 0.000000e+00 -1.000000e+00
    outer loop
      vertex   2.693522e-02 -4.052775e-03 0.000000e+00
      vertex   2.738525e-02 2.426770e-02 0.000000e+00
      vertex   2.738525e-02 -3.602747e-03 0.000000e+00
    endloop
  endfacet
  facet normal 0.000000e+00 0.000000e+00 -1.000000e+00
    outer loop
      vertex   2.738525e-02 -3.602747e-03 0.000000e+00
      vertex   2.738525e-02 2.426770e-02 0.000000e+00
      vertex   2.800000e-02 2.410298e-02 0.000000e+00
    endloop
  endfacet
  facet normal 0.000000e+00 0.000000e+00 -1.000000e+00
    outer loop
      vertex   2.677050e-02 2.533248e-02 0.000000e+00
      vertex   -2.677050e-02 2.533248e-02 0.000000e+00
      vertex   2.693522e-02 2.594723e-02 0.000000e+00
    endloop
  endfacet
  facet normal -0.000000e+00 0.000000e+00 -1.000000e+00
    outer loop
      vertex   2.693522e-02 2.594723e-02 0.000000e+00
      vertex   -2.677050e-02 2.533248e-02 0.000000e+00
      vertex   -2.693522e-02 2.594723e-02 0.000000e+00
    endloop
  endfacet
  facet normal -0.000000e+00 0.000000e+00 -1.000000e+00
    outer loop
      vertex   2.693522e-02 -5.282275e-03 0.000000e+00
      vertex   1.553507e-03 -1.038291e-02 0.000000e+00
      vertex   2.677050e-02 -4.667525e-03 0.000000e+00
    endloop
  endfacet
  facet normal 0.000000e+00 0.000000e+00 -1.000000e+00
    outer loop
      vertex   2.677050e-02 -4.667525e-03 0.000000e+00
      vertex   1.553507e-03 -1.038291e-02 0.000000e+00
      vertex   1.553507e-03 -9.617095e-03 0.000000e+00
    endloop
  endfacet
  facet normal -0.000000e+00 0.000000e+00 -1.000000e+00
    outer loop
      vertex   2.677050e-02 -4.667525e-03 0.000000e+00
      vertex   1.553507e-03 -9.617095e-03 0.000000e+00
      vertex   2.693522e-02 -4.052775e-03 0.000000e+00
    endloop
  endfacet
  facet normal 0.000000e+00 0.000000e+00 -1.000000e+00
    outer loop
      vertex   2.693522e-02 -4.052775e-03 0.000000e+00
      vertex   1.553507e-03 -9.617095e-03 0.000000e+00
      vertex   1.197617e-03 -8.939004e-03 0.000000e+00
    endloop
  endfacet
  facet normal 0.000000e+00 0.000000e+00 -1.000000e+00
    outer loop
      vertex   1.553507e-03 -1.038291e-02 0.000000e+00
      vertex   2.693522e-02 -5.282275e-03 0.000000e+00
      vertex   1.553507e-03 -3.961709e-02 0.000000e+00
    endloop
  endfacet
  facet normal 0.000000e+00 0.000000e+00 -1.000000e+00
    outer loop
      vertex   1.553507e-03 -3.961709e-02 0.000000e+00
      vertex   2.693522e-02 -5.282275e-03 0.000000e+00
      vertex   2.738525e-02 -5.732303e-03 0.000000e+00
    endloop
  endfacet
  facet normal 0.000000e+00 0.000000e+00 -1.000000e+00
    outer loop
      vertex   1.553507e-03 -3.961709e-02 0.000000e+00
      vertex   2.738525e-02 -5.732303e-03 0.000000e+00
      vertex   3.500000e-02 -5.000000e-02 0.000000e+00
    endloop
  endfacet
  facet normal 0.000000e+00 0.000000e+00 -1.000000e+00
    outer loop
      vertex   3.500000e-02 -5.000000e-02 0.000000e+00
      vertex   2.738525e-02 -5.732303e-03 0.000000e+00
      vertex   2.800000e-02 -5.897025e-03 0.000000e+00
    endloop
  endfacet
  facet normal 0.000000e+00 0.000000e+00 -1.000000e+00
    outer loop
      vertex   3.500000e-02 -5.000000e-02 0.000000e+00
      vertex   2.800000e-02 -5.897025e-03 0.000000e+00
      vertex   2.861475e-02 -5.732303e-03 0.000000e+00
    endloop
  endfacet
  facet normal 0.000000e+00 0.000000e+00 -1.000000e+00
    outer loop
      vertex   2.861475e-02 -5.732303e-03 0.000000e+00
      vertex   2.906478e-02 -5.282275e-03 0.000000e+00
      vertex   3.500000e-02 -5.000000e-02 0.000000e+00
    endloop
  endfacet
  facet normal 0.000000e+00 0.000000e+00 -1.000000e+00
    outer loop
      vertex   3.500000e-02 -5.000000e-02 0.000000e+00
      vertex   2.906478e-02 -5.282275e-03 0.000000e+00
      vertex   2.922950e-02 -4.667525e-03 0.000000e+00
    endloop
  endfacet
  facet normal 0.000000e+00 0.000000e+00 -1.000000e+00
    outer loop
      vertex   3.500000e-02 -5.000000e-02 0.000000e+00
      vertex   2.922950e-02 -4.667525e-03 0.000000e+00
      vertex   3.500000e-02 5.000000e-02 0.000000e+00
    endloop
  endfacet
  facet normal 0.000000e+00 -0.000000e+00 -1.000000e+00
    outer loop
      vertex   -9.089036e-04 -4.131677e-02 0.000000e+00
      vertex   -1.928587e-04 -4.158833e-02 0.000000e+00
      vertex   -3.500000e-02 -5.000000e-02 0.000000e+00
    endloop
  endfacet
  facet normal 0.000000e+00 0.000000e+00 -1.000000e+00
    outer loop
      vertex   -3.500000e-02 -5.000000e-02 0.000000e+00
      vertex   -1.928587e-04 -4.158833e-02 0.000000e+00
      vertex   3.500000e-02 -5.000000e-02 0.000000e+00
    endloop
  endfacet
  facet normal 0.000000e+00 0.000000e+00 -1.000000e+00
    outer loop
      vertex   3.500000e-02 -5.000000e-02 0.000000e+00
      vertex   -1.928587e-04 -4.158833e-02 0.000000e+00
      vertex   5.673678e-04 -4.149603e-02 0.000000e+00
    endloop
  endfacet
  facet normal 0.000000e+00 0.000000e+00 -1.000000e+00
    outer loop
      vertex   3.500000e-02 -5.000000e-02 0.000000e+00
      vertex   5.673678e-04 -4.149603e-02 0.000000e+00
      vertex   1.197617e-03 -4.106100e-02 0.000000e+00
    endloop
  endfacet
  facet normal 0.000000e+00 0.000000e+00 -1.000000e+00
    outer loop
      vertex   1.197617e-03 -4.106100e-02 0.000000e+00
      vertex   1.553507e-03 -4.038291e-02 0.000000e+00
      vertex   3.500000e-02 -5.000000e-02 0.000000e+00
    endloop
  endfacet
  facet normal 0.000000e+00 0.000000e+00 -1.000000e+00
    outer loop
      vertex   3.500000e-02 -5.000000e-02 0.000000e+00
      vertex   1.553507e-03 -4.038291e-02 0.000000e+00
      vertex   1.553507e-03 -3.961709e-02 0.000000e+00
    endloop
  endfacet
  facet normal 0.000000e+00 0.000000e+00 -1.000000e+00
    outer loop
      vertex   1.553507e-03 -3.961709e-02 0.000000e+00
      vertex   1.197617e-03 -3.893900e-02 0.000000e+00
      vertex   1.553507e-03 -1.038291e-02 0.000000e+00
    endloop
  endfacet
  facet normal 0.000000e+00 0.000000e+00 -1.000000e+00
    outer loop
      vertex   1.553507e-03 -1.038291e-02 0.000000e+00
      vertex   1.197617e-03 -3.893900e-02 0.000000e+00
      vertex   1.197617e-03 -1.106100e-02 0.000000e+00
    endloop
  endfacet
  facet normal 0.000000e+00 -0.000000e+00 -1.000000e+00
    outer loop
      vertex   1.197617e-03 -1.106100e-02 0.000000e+00
      vertex   1.197617e-03 -3.893900e-02 0.000000e+00
      vertex   5.673678e-04 -3.850397e-02 0.000000e+00
    endloop
  endfacet
endsolid
