solid ASCII
  facet normal 9.659258e-01 -2.588190e-01 0.000000e+00
    outer loop
      vertex   9.361436e-02 2.080000e-02 0.000000e+00
      vertex   9.361436e-02 2.080000e-02 1.500000e-03
      vertex   9.340000e-02 2.000000e-02 0.000000e+00
    endloop
  endfacet
  facet normal 9.659258e-01 -2.588190e-01 0.000000e+00
    outer loop
      vertex   9.340000e-02 2.000000e-02 0.000000e+00
      vertex   9.361436e-02 2.080000e-02 1.500000e-03
      vertex   9.340000e-02 2.000000e-02 1.500000e-03
    endloop
  endfacet
  facet normal 9.659258e-01 2.588190e-01 -0.000000e+00
    outer loop
      vertex   9.340000e-02 2.000000e-02 0.000000e+00
      vertex   9.340000e-02 2.000000e-02 1.500000e-03
      vertex   9.361436e-02 1.920000e-02 0.000000e+00
    endloop
  endfacet
  facet normal 9.659258e-01 2.588190e-01 -0.000000e+00
    outer loop
      vertex   9.361436e-02 1.920000e-02 0.000000e+00
      vertex   9.340000e-02 2.000000e-02 1.500000e-03
      vertex   9.361436e-02 1.920000e-02 1.500000e-03
    endloop
  endfacet
  facet normal 7.071068e-01 7.071068e-01 -0.000000e+00
    outer loop
      vertex   9.361436e-02 1.920000e-02 0.000000e+00
      vertex   9.361436e-02 1.920000e-02 1.500000e-03
      vertex   9.420000e-02 1.861436e-02 0.000000e+00
    endloop
  endfacet
  facet normal 7.071068e-01 7.071068e-01 -0.000000e+00
    outer loop
      vertex   9.420000e-02 1.861436e-02 0.000000e+00
      vertex   9.361436e-02 1.920000e-02 1.500000e-03
      vertex   9.420000e-02 1.861436e-02 1.500000e-03
    endloop
  endfacet
  facet normal 2.588190e-01 9.659258e-01 -0.000000e+00
    outer loop
      vertex   9.420000e-02 1.861436e-02 0.000000e+00
      vertex   9.420000e-02 1.861436e-02 1.500000e-03
      vertex   9.500000e-02 1.840000e-02 0.000000e+00
    endloop
  endfacet
  facet normal 2.588190e-01 9.659258e-01 -0.000000e+00
    outer loop
      vertex   9.500000e-02 1.840000e-02 0.000000e+00
      vertex   9.420000e-02 1.861436e-02 1.500000e-03
      vertex   9.500000e-02 1.840000e-02 1.500000e-03
    endloop
  endfacet
  facet normal -2.588190e-01 9.659258e-01 0.000000e+00
    outer loop
      vertex   9.500000e-02 1.840000e-02 0.000000e+00
      vertex   9.500000e-02 1.840000e-02 1.500000e-03
      vertex   9.580000e-02 1.861436e-02 0.000000e+00
    endloop
  endfacet
  facet normal -2.588190e-01 9.659258e-01 0.000000e+00
    outer loop
      vertex   9.580000e-02 1.861436e-02 0.000000e+00
      vertex   9.500000e-02 1.840000e-02 1.500000e-03
      vertex   9.580000e-02 1.861436e-02 1.500000e-03
    endloop
  endfacet
  facet normal -7.071068e-01 7.071068e-01 0.000000e+00
    outer loop
      vertex   9.580000e-02 1.861436e-02 0.000000e+00
      vertex   9.580000e-02 1.861436e-02 1.500000e-03
      vertex   9.638564e-02 1.920000e-02 0.000000e+00
    endloop
  endfacet
  facet normal -7.071068e-01 7.071068e-01 0.000000e+00
    outer loop
      vertex   9.638564e-02 1.920000e-02 0.000000e+00
      vertex   9.580000e-02 1.861436e-02 1.500000e-03
      vertex   9.638564e-02 1.920000e-02 1.500000e-03
    endloop
  endfacet
  facet normal -9.659258e-01 2.588190e-01 0.000000e+00
    outer loop
      vertex   9.638564e-02 1.920000e-02 0.000000e+00
      vertex   9.638564e-02 1.920000e-02 1.500000e-03
      vertex   9.660000e-02 2.000000e-02 0.000000e+00
    endloop
  endfacet
  facet normal -9.659258e-01 2.588190e-01 0.000000e+00
    outer loop
      vertex   9.660000e-02 2.000000e-02 0.000000e+00
      vertex   9.638564e-02 1.920000e-02 1.500000e-03
      vertex   9.660000e-02 2.000000e-02 1.500000e-03
    endloop
  endfacet
  facet normal -9.659258e-01 -2.588190e-01 0.000000e+00
    outer loop
      vertex   9.660000e-02 2.000000e-02 0.000000e+00
      vertex   9.660000e-02 2.000000e-02 1.500000e-03
      vertex   9.638564e-02 2.080000e-02 0.000000e+00
    endloop
  endfacet
  facet normal -9.659258e-01 -2.588190e-01 0.000000e+00
    outer loop
      vertex   9.638564e-02 2.080000e-02 0.000000e+00
      vertex   9.660000e-02 2.000000e-02 1.500000e-03
      vertex   9.638564e-02 2.080000e-02 1.500000e-03
    endloop
  endfacet
  facet normal -7.071068e-01 -7.071068e-01 0.000000e+00
    outer loop
      vertex   9.638564e-02 2.080000e-02 0.000000e+00
      vertex   9.638564e-02 2.080000e-02 1.500000e-03
      vertex   9.580000e-02 2.138564e-02 0.000000e+00
    endloop
  endfacet
  facet normal -7.071068e-01 -7.071068e-01 3.271026e-15
    outer loop
      vertex   9.580000e-02 2.138564e-02 0.000000e+00
      vertex   9.638564e-02 2.080000e-02 1.500000e-03
      vertex   9.580000e-02 2.138564e-02 1.500000e-03
    endloop
  endfacet
  facet normal -2.588190e-01 -9.659258e-01 4.468305e-15
    outer loop
      vertex   9.580000e-02 2.138564e-02 0.000000e+00
      vertex   9.580000e-02 2.138564e-02 1.500000e-03
      vertex   9.500000e-02 2.160000e-02 0.000000e+00
    endloop
  endfacet
  facet normal -2.588190e-01 -9.659258e-01 0.000000e+00
    outer loop
      vertex   9.500000e-02 2.160000e-02 0.000000e+00
      vertex   9.580000e-02 2.138564e-02 1.500000e-03
      vertex   9.500000e-02 2.160000e-02 1.500000e-03
    endloop
  endfacet
  facet normal 2.588190e-01 -9.659258e-01 0.000000e+00
    outer loop
      vertex   9.500000e-02 2.160000e-02 0.000000e+00
      vertex   9.500000e-02 2.160000e-02 1.500000e-03
      vertex   9.420000e-02 2.138564e-02 0.000000e+00
    endloop
  endfacet
  facet normal 2.588190e-01 -9.659258e-01 -4.468305e-15
    outer loop
      vertex   9.420000e-02 2.138564e-02 0.000000e+00
      vertex   9.500000e-02 2.160000e-02 1.500000e-03
      vertex   9.420000e-02 2.138564e-02 1.500000e-03
    endloop
  endfacet
  facet normal 7.071068e-01 -7.071068e-01 -3.271026e-15
    outer loop
      vertex   9.420000e-02 2.138564e-02 0.000000e+00
      vertex   9.420000e-02 2.138564e-02 1.500000e-03
      vertex   9.361436e-02 2.080000e-02 0.000000e+00
    endloop
  endfacet
  facet normal 7.071068e-01 -7.071068e-01 0.000000e+00
    outer loop
      vertex   9.361436e-02 2.080000e-02 0.000000e+00
      vertex   9.420000e-02 2.138564e-02 1.500000e-03
      vertex   9.361436e-02 2.080000e-02 1.500000e-03
    endloop
  endfacet
  facet normal 9.659258e-01 -2.588190e-01 0.000000e+00
    outer loop
      vertex   -9.638564e-02 2.080000e-02 0.000000e+00
      vertex   -9.638564e-02 2.080000e-02 1.500000e-03
      vertex   -9.660000e-02 2.000000e-02 0.000000e+00
    endloop
  endfacet
  facet normal 9.659258e-01 -2.588190e-01 0.000000e+00
    outer loop
      vertex   -9.660000e-02 2.000000e-02 0.000000e+00
      vertex   -9.638564e-02 2.080000e-02 1.500000e-03
      vertex   -9.660000e-02 2.000000e-02 1.500000e-03
    endloop
  endfacet
  facet normal 9.659258e-01 2.588190e-01 -0.000000e+00
    outer loop
      vertex   -9.660000e-02 2.000000e-02 0.000000e+00
      vertex   -9.660000e-02 2.000000e-02 1.500000e-03
      vertex   -9.638564e-02 1.920000e-02 0.000000e+00
    endloop
  endfacet
  facet normal 9.659258e-01 2.588190e-01 -0.000000e+00
    outer loop
      vertex   -9.638564e-02 1.920000e-02 0.000000e+00
      vertex   -9.660000e-02 2.000000e-02 1.500000e-03
      vertex   -9.638564e-02 1.920000e-02 1.500000e-03
    endloop
  endfacet
  facet normal 7.071068e-01 7.071068e-01 -0.000000e+00
    outer loop
      vertex   -9.638564e-02 1.920000e-02 0.000000e+00
      vertex   -9.638564e-02 1.920000e-02 1.500000e-03
      vertex   -9.580000e-02 1.861436e-02 0.000000e+00
    endloop
  endfacet
  facet normal 7.071068e-01 7.071068e-01 -0.000000e+00
    outer loop
      vertex   -9.580000e-02 1.861436e-02 0.000000e+00
      vertex   -9.638564e-02 1.920000e-02 1.500000e-03
      vertex   -9.580000e-02 1.861436e-02 1.500000e-03
    endloop
  endfacet
  facet normal 2.588190e-01 9.659258e-01 -0.000000e+00
    outer loop
      vertex   -9.580000e-02 1.861436e-02 0.000000e+00
      vertex   -9.580000e-02 1.861436e-02 1.500000e-03
      vertex   -9.500000e-02 1.840000e-02 0.000000e+00
    endloop
  endfacet
  facet normal 2.588190e-01 9.659258e-01 -0.000000e+00
    outer loop
      vertex   -9.500000e-02 1.840000e-02 0.000000e+00
      vertex   -9.580000e-02 1.861436e-02 1.500000e-03
      vertex   -9.500000e-02 1.840000e-02 1.500000e-03
    endloop
  endfacet
  facet normal -2.588190e-01 9.659258e-01 0.000000e+00
    outer loop
      vertex   -9.500000e-02 1.840000e-02 0.000000e+00
      vertex   -9.500000e-02 1.840000e-02 1.500000e-03
      vertex   -9.420000e-02 1.861436e-02 0.000000e+00
    endloop
  endfacet
  facet normal -2.588190e-01 9.659258e-01 0.000000e+00
    outer loop
      vertex   -9.420000e-02 1.861436e-02 0.000000e+00
      vertex   -9.500000e-02 1.840000e-02 1.500000e-03
      vertex   -9.420000e-02 1.861436e-02 1.500000e-03
    endloop
  endfacet
  facet normal -7.071068e-01 7.071068e-01 0.000000e+00
    outer loop
      vertex   -9.420000e-02 1.861436e-02 0.000000e+00
      vertex   -9.420000e-02 1.861436e-02 1.500000e-03
      vertex   -9.361436e-02 1.920000e-02 0.000000e+00
    endloop
  endfacet
  facet normal -7.071068e-01 7.071068e-01 0.000000e+00
    outer loop
      vertex   -9.361436e-02 1.920000e-02 0.000000e+00
      vertex   -9.420000e-02 1.861436e-02 1.500000e-03
      vertex   -9.361436e-02 1.920000e-02 1.500000e-03
    endloop
  endfacet
  facet normal -9.659258e-01 2.588190e-01 0.000000e+00
    outer loop
      vertex   -9.361436e-02 1.920000e-02 0.000000e+00
      vertex   -9.361436e-02 1.920000e-02 1.500000e-03
      vertex   -9.340000e-02 2.000000e-02 0.000000e+00
    endloop
  endfacet
  facet normal -9.659258e-01 2.588190e-01 0.000000e+00
    outer loop
      vertex   -9.340000e-02 2.000000e-02 0.000000e+00
      vertex   -9.361436e-02 1.920000e-02 1.500000e-03
      vertex   -9.340000e-02 2.000000e-02 1.500000e-03
    endloop
  endfacet
  facet normal -9.659258e-01 -2.588190e-01 0.000000e+00
    outer loop
      vertex   -9.340000e-02 2.000000e-02 0.000000e+00
      vertex   -9.340000e-02 2.000000e-02 1.500000e-03
      vertex   -9.361436e-02 2.080000e-02 0.000000e+00
    endloop
  endfacet
  facet normal -9.659258e-01 -2.588190e-01 0.000000e+00
    outer loop
      vertex   -9.361436e-02 2.080000e-02 0.000000e+00
      vertex   -9.340000e-02 2.000000e-02 1.500000e-03
      vertex   -9.361436e-02 2.080000e-02 1.500000e-03
    endloop
  endfacet
  facet normal -7.071068e-01 -7.071068e-01 0.000000e+00
    outer loop
      vertex   -9.361436e-02 2.080000e-02 0.000000e+00
      vertex   -9.361436e-02 2.080000e-02 1.500000e-03
      vertex   -9.420000e-02 2.138564e-02 0.000000e+00
    endloop
  endfacet
  facet normal -7.071068e-01 -7.071068e-01 3.271026e-15
    outer loop
      vertex   -9.420000e-02 2.138564e-02 0.000000e+00
      vertex   -9.361436e-02 2.080000e-02 1.500000e-03
      vertex   -9.420000e-02 2.138564e-02 1.500000e-03
    endloop
  endfacet
  facet normal -2.588190e-01 -9.659258e-01 4.468305e-15
    outer loop
      vertex   -9.420000e-02 2.138564e-02 0.000000e+00
      vertex   -9.420000e-02 2.138564e-02 1.500000e-03
      vertex   -9.500000e-02 2.160000e-02 0.000000e+00
    endloop
  endfacet
  facet normal -2.588190e-01 -9.659258e-01 0.000000e+00
    outer loop
      vertex   -9.500000e-02 2.160000e-02 0.000000e+00
      vertex   -9.420000e-02 2.138564e-02 1.500000e-03
      vertex   -9.500000e-02 2.160000e-02 1.500000e-03
    endloop
  endfacet
  facet normal 2.588190e-01 -9.659258e-01 0.000000e+00
    outer loop
      vertex   -9.500000e-02 2.160000e-02 0.000000e+00
      vertex   -9.500000e-02 2.160000e-02 1.500000e-03
      vertex   -9.580000e-02 2.138564e-02 0.000000e+00
    endloop
  endfacet
  facet normal 2.588190e-01 -9.659258e-01 -4.468305e-15
    outer loop
      vertex   -9.580000e-02 2.138564e-02 0.000000e+00
      vertex   -9.500000e-02 2.160000e-02 1.500000e-03
      vertex   -9.580000e-02 2.138564e-02 1.500000e-03
    endloop
  endfacet
  facet normal 7.071068e-01 -7.071068e-01 -3.271026e-15
    outer loop
      vertex   -9.580000e-02 2.138564e-02 0.000000e+00
      vertex   -9.580000e-02 2.138564e-02 1.500000e-03
      vertex   -9.638564e-02 2.080000e-02 0.000000e+00
    endloop
  endfacet
  facet normal 7.071068e-01 -7.071068e-01 0.000000e+00
    outer loop
      vertex   -9.638564e-02 2.080000e-02 0.000000e+00
      vertex   -9.580000e-02 2.138564e-02 1.500000e-03
      vertex   -9.638564e-02 2.080000e-02 1.500000e-03
    endloop
  endfacet
  facet normal 9.659258e-01 -2.588190e-01 0.000000e+00
    outer loop
      vertex   -9.638564e-02 -1.920000e-02 0.000000e+00
      vertex   -9.638564e-02 -1.920000e-02 1.500000e-03
      vertex   -9.660000e-02 -2.000000e-02 0.000000e+00
    endloop
  endfacet
  facet normal 9.659258e-01 -2.588190e-01 0.000000e+00
    outer loop
      vertex   -9.660000e-02 -2.000000e-02 0.000000e+00
      vertex   -9.638564e-02 -1.920000e-02 1.500000e-03
      vertex   -9.660000e-02 -2.000000e-02 1.500000e-03
    endloop
  endfacet
  facet normal 9.659258e-01 2.588190e-01 -0.000000e+00
    outer loop
      vertex   -9.660000e-02 -2.000000e-02 0.000000e+00
      vertex   -9.660000e-02 -2.000000e-02 1.500000e-03
      vertex   -9.638564e-02 -2.080000e-02 0.000000e+00
    endloop
  endfacet
  facet normal 9.659258e-01 2.588190e-01 -0.000000e+00
    outer loop
      vertex   -9.638564e-02 -2.080000e-02 0.000000e+00
      vertex   -9.660000e-02 -2.000000e-02 1.500000e-03
      vertex   -9.638564e-02 -2.080000e-02 1.500000e-03
    endloop
  endfacet
  facet normal 7.071068e-01 7.071068e-01 -0.000000e+00
    outer loop
      vertex   -9.638564e-02 -2.080000e-02 0.000000e+00
      vertex   -9.638564e-02 -2.080000e-02 1.500000e-03
      vertex   -9.580000e-02 -2.138564e-02 0.000000e+00
    endloop
  endfacet
  facet normal 7.071068e-01 7.071068e-01 -0.000000e+00
    outer loop
      vertex   -9.580000e-02 -2.138564e-02 0.000000e+00
      vertex   -9.638564e-02 -2.080000e-02 1.500000e-03
      vertex   -9.580000e-02 -2.138564e-02 1.500000e-03
    endloop
  endfacet
  facet normal 2.588190e-01 9.659258e-01 -0.000000e+00
    outer loop
      vertex   -9.580000e-02 -2.138564e-02 0.000000e+00
      vertex   -9.580000e-02 -2.138564e-02 1.500000e-03
      vertex   -9.500000e-02 -2.160000e-02 0.000000e+00
    endloop
  endfacet
  facet normal 2.588190e-01 9.659258e-01 -0.000000e+00
    outer loop
      vertex   -9.500000e-02 -2.160000e-02 0.000000e+00
      vertex   -9.580000e-02 -2.138564e-02 1.500000e-03
      vertex   -9.500000e-02 -2.160000e-02 1.500000e-03
    endloop
  endfacet
  facet normal -2.588190e-01 9.659258e-01 0.000000e+00
    outer loop
      vertex   -9.500000e-02 -2.160000e-02 0.000000e+00
      vertex   -9.500000e-02 -2.160000e-02 1.500000e-03
      vertex   -9.420000e-02 -2.138564e-02 0.000000e+00
    endloop
  endfacet
  facet normal -2.588190e-01 9.659258e-01 0.000000e+00
    outer loop
      vertex   -9.420000e-02 -2.138564e-02 0.000000e+00
      vertex   -9.500000e-02 -2.160000e-02 1.500000e-03
      vertex   -9.420000e-02 -2.138564e-02 1.500000e-03
    endloop
  endfacet
  facet normal -7.071068e-01 7.071068e-01 0.000000e+00
    outer loop
      vertex   -9.420000e-02 -2.138564e-02 0.000000e+00
      vertex   -9.420000e-02 -2.138564e-02 1.500000e-03
      vertex   -9.361436e-02 -2.080000e-02 0.000000e+00
    endloop
  endfacet
  facet normal -7.071068e-01 7.071068e-01 0.000000e+00
    outer loop
      vertex   -9.361436e-02 -2.080000e-02 0.000000e+00
      vertex   -9.420000e-02 -2.138564e-02 1.500000e-03
      vertex   -9.361436e-02 -2.080000e-02 1.500000e-03
    endloop
  endfacet
  facet normal -9.659258e-01 2.588190e-01 0.000000e+00
    outer loop
      vertex   -9.361436e-02 -2.080000e-02 0.000000e+00
      vertex   -9.361436e-02 -2.080000e-02 1.500000e-03
      vertex   -9.340000e-02 -2.000000e-02 0.000000e+00
    endloop
  endfacet
  facet normal -9.659258e-01 2.588190e-01 0.000000e+00
    outer loop
      vertex   -9.340000e-02 -2.000000e-02 0.000000e+00
      vertex   -9.361436e-02 -2.080000e-02 1.500000e-03
      vertex   -9.340000e-02 -2.000000e-02 1.500000e-03
    endloop
  endfacet
  facet normal -9.659258e-01 -2.588190e-01 0.000000e+00
    outer loop
      vertex   -9.340000e-02 -2.000000e-02 0.000000e+00
      vertex   -9.340000e-02 -2.000000e-02 1.500000e-03
      vertex   -9.361436e-02 -1.920000e-02 0.000000e+00
    endloop
  endfacet
  facet normal -9.659258e-01 -2.588190e-01 0.000000e+00
    outer loop
      vertex   -9.361436e-02 -1.920000e-02 0.000000e+00
      vertex   -9.340000e-02 -2.000000e-02 1.500000e-03
      vertex   -9.361436e-02 -1.920000e-02 1.500000e-03
    endloop
  endfacet
  facet normal -7.071068e-01 -7.071068e-01 0.000000e+00
    outer loop
      vertex   -9.361436e-02 -1.920000e-02 0.000000e+00
      vertex   -9.361436e-02 -1.920000e-02 1.500000e-03
      vertex   -9.420000e-02 -1.861436e-02 0.000000e+00
    endloop
  endfacet
  facet normal -7.071068e-01 -7.071068e-01 0.000000e+00
    outer loop
      vertex   -9.420000e-02 -1.861436e-02 0.000000e+00
      vertex   -9.361436e-02 -1.920000e-02 1.500000e-03
      vertex   -9.420000e-02 -1.861436e-02 1.500000e-03
    endloop
  endfacet
  facet normal -2.588190e-01 -9.659258e-01 0.000000e+00
    outer loop
      vertex   -9.420000e-02 -1.861436e-02 0.000000e+00
      vertex   -9.420000e-02 -1.861436e-02 1.500000e-03
      vertex   -9.500000e-02 -1.840000e-02 0.000000e+00
    endloop
  endfacet
  facet normal -2.588190e-01 -9.659258e-01 0.000000e+00
    outer loop
      vertex   -9.500000e-02 -1.840000e-02 0.000000e+00
      vertex   -9.420000e-02 -1.861436e-02 1.500000e-03
      vertex   -9.500000e-02 -1.840000e-02 1.500000e-03
    endloop
  endfacet
  facet normal 2.588190e-01 -9.659258e-01 0.000000e+00
    outer loop
      vertex   -9.500000e-02 -1.840000e-02 0.000000e+00
      vertex   -9.500000e-02 -1.840000e-02 1.500000e-03
      vertex   -9.580000e-02 -1.861436e-02 0.000000e+00
    endloop
  endfacet
  facet normal 2.588190e-01 -9.659258e-01 0.000000e+00
    outer loop
      vertex   -9.580000e-02 -1.861436e-02 0.000000e+00
      vertex   -9.500000e-02 -1.840000e-02 1.500000e-03
      vertex   -9.580000e-02 -1.861436e-02 1.500000e-03
    endloop
  endfacet
  facet normal 7.071068e-01 -7.071068e-01 0.000000e+00
    outer loop
      vertex   -9.580000e-02 -1.861436e-02 0.000000e+00
      vertex   -9.580000e-02 -1.861436e-02 1.500000e-03
      vertex   -9.638564e-02 -1.920000e-02 0.000000e+00
    endloop
  endfacet
  facet normal 7.071068e-01 -7.071068e-01 0.000000e+00
    outer loop
      vertex   -9.638564e-02 -1.920000e-02 0.000000e+00
      vertex   -9.580000e-02 -1.861436e-02 1.500000e-03
      vertex   -9.638564e-02 -1.920000e-02 1.500000e-03
    endloop
  endfacet
  facet normal 9.659258e-01 -2.588190e-01 0.000000e+00
    outer loop
      vertex   9.361436e-02 -1.920000e-02 0.000000e+00
      vertex   9.361436e-02 -1.920000e-02 1.500000e-03
      vertex   9.340000e-02 -2.000000e-02 0.000000e+00
    endloop
  endfacet
  facet normal 9.659258e-01 -2.588190e-01 0.000000e+00
    outer loop
      vertex   9.340000e-02 -2.000000e-02 0.000000e+00
      vertex   9.361436e-02 -1.920000e-02 1.500000e-03
      vertex   9.340000e-02 -2.000000e-02 1.500000e-03
    endloop
  endfacet
  facet normal 9.659258e-01 2.588190e-01 -0.000000e+00
    outer loop
      vertex   9.340000e-02 -2.000000e-02 0.000000e+00
      vertex   9.340000e-02 -2.000000e-02 1.500000e-03
      vertex   9.361436e-02 -2.080000e-02 0.000000e+00
    endloop
  endfacet
  facet normal 9.659258e-01 2.588190e-01 -0.000000e+00
    outer loop
      vertex   9.361436e-02 -2.080000e-02 0.000000e+00
      vertex   9.340000e-02 -2.000000e-02 1.500000e-03
      vertex   9.361436e-02 -2.080000e-02 1.500000e-03
    endloop
  endfacet
  facet normal 7.071068e-01 7.071068e-01 -0.000000e+00
    outer loop
      vertex   9.361436e-02 -2.080000e-02 0.000000e+00
      vertex   9.361436e-02 -2.080000e-02 1.500000e-03
      vertex   9.420000e-02 -2.138564e-02 0.000000e+00
    endloop
  endfacet
  facet normal 7.071068e-01 7.071068e-01 -0.000000e+00
    outer loop
      vertex   9.420000e-02 -2.138564e-02 0.000000e+00
      vertex   9.361436e-02 -2.080000e-02 1.500000e-03
      vertex   9.420000e-02 -2.138564e-02 1.500000e-03
    endloop
  endfacet
  facet normal 2.588190e-01 9.659258e-01 -0.000000e+00
    outer loop
      vertex   9.420000e-02 -2.138564e-02 0.000000e+00
      vertex   9.420000e-02 -2.138564e-02 1.500000e-03
      vertex   9.500000e-02 -2.160000e-02 0.000000e+00
    endloop
  endfacet
  facet normal 2.588190e-01 9.659258e-01 -0.000000e+00
    outer loop
      vertex   9.500000e-02 -2.160000e-02 0.000000e+00
      vertex   9.420000e-02 -2.138564e-02 1.500000e-03
      vertex   9.500000e-02 -2.160000e-02 1.500000e-03
    endloop
  endfacet
  facet normal -2.588190e-01 9.659258e-01 0.000000e+00
    outer loop
      vertex   9.500000e-02 -2.160000e-02 0.000000e+00
      vertex   9.500000e-02 -2.160000e-02 1.500000e-03
      vertex   9.580000e-02 -2.138564e-02 0.000000e+00
    endloop
  endfacet
  facet normal -2.588190e-01 9.659258e-01 0.000000e+00
    outer loop
      vertex   9.580000e-02 -2.138564e-02 0.000000e+00
      vertex   9.500000e-02 -2.160000e-02 1.500000e-03
      vertex   9.580000e-02 -2.138564e-02 1.500000e-03
    endloop
  endfacet
  facet normal -7.071068e-01 7.071068e-01 0.000000e+00
    outer loop
      vertex   9.580000e-02 -2.138564e-02 0.000000e+00
      vertex   9.580000e-02 -2.138564e-02 1.500000e-03
      vertex   9.638564e-02 -2.080000e-02 0.000000e+00
    endloop
  endfacet
  facet normal -7.071068e-01 7.071068e-01 0.000000e+00
    outer loop
      vertex   9.638564e-02 -2.080000e-02 0.000000e+00
      vertex   9.580000e-02 -2.138564e-02 1.500000e-03
      vertex   9.638564e-02 -2.080000e-02 1.500000e-03
    endloop
  endfacet
  facet normal -9.659258e-01 2.588190e-01 0.000000e+00
    outer loop
      vertex   9.638564e-02 -2.080000e-02 0.000000e+00
      vertex   9.638564e-02 -2.080000e-02 1.500000e-03
      vertex   9.660000e-02 -2.000000e-02 0.000000e+00
    endloop
  endfacet
  facet normal -9.659258e-01 2.588190e-01 0.000000e+00
    outer loop
      vertex   9.660000e-02 -2.000000e-02 0.000000e+00
      vertex   9.638564e-02 -2.080000e-02 1.500000e-03
      vertex   9.660000e-02 -2.000000e-02 1.500000e-03
    endloop
  endfacet
  facet normal -9.659258e-01 -2.588190e-01 0.000000e+00
    outer loop
      vertex   9.660000e-02 -2.000000e-02 0.000000e+00
      vertex   9.660000e-02 -2.000000e-02 1.500000e-03
      vertex   9.638564e-02 -1.920000e-02 0.000000e+00
    endloop
  endfacet
  facet normal -9.659258e-01 -2.588190e-01 0.000000e+00
    outer loop
      vertex   9.638564e-02 -1.920000e-02 0.000000e+00
      vertex   9.660000e-02 -2.000000e-02 1.500000e-03
      vertex   9.638564e-02 -1.920000e-02 1.500000e-03
    endloop
  endfacet
  facet normal -7.071068e-01 -7.071068e-01 0.000000e+00
    outer loop
      vertex   9.638564e-02 -1.920000e-02 0.000000e+00
      vertex   9.638564e-02 -1.920000e-02 1.500000e-03
      vertex   9.580000e-02 -1.861436e-02 0.000000e+00
    endloop
  endfacet
  facet normal -7.071068e-01 -7.071068e-01 0.000000e+00
    outer loop
      vertex   9.580000e-02 -1.861436e-02 0.000000e+00
      vertex   9.638564e-02 -1.920000e-02 1.500000e-03
      vertex   9.580000e-02 -1.861436e-02 1.500000e-03
    endloop
  endfacet
  facet normal -2.588190e-01 -9.659258e-01 0.000000e+00
    outer loop
      vertex   9.580000e-02 -1.861436e-02 0.000000e+00
      vertex   9.580000e-02 -1.861436e-02 1.500000e-03
      vertex   9.500000e-02 -1.840000e-02 0.000000e+00
    endloop
  endfacet
  facet normal -2.588190e-01 -9.659258e-01 0.000000e+00
    outer loop
      vertex   9.500000e-02 -1.840000e-02 0.000000e+00
      vertex   9.580000e-02 -1.861436e-02 1.500000e-03
      vertex   9.500000e-02 -1.840000e-02 1.500000e-03
    endloop
  endfacet
  facet normal 2.588190e-01 -9.659258e-01 0.000000e+00
    outer loop
      vertex   9.500000e-02 -1.840000e-02 0.000000e+00
      vertex   9.500000e-02 -1.840000e-02 1.500000e-03
      vertex   9.420000e-02 -1.861436e-02 0.000000e+00
    endloop
  endfacet
  facet normal 2.588190e-01 -9.659258e-01 0.000000e+00
    outer loop
      vertex   9.420000e-02 -1.861436e-02 0.000000e+00
      vertex   9.500000e-02 -1.840000e-02 1.500000e-03
      vertex   9.420000e-02 -1.861436e-02 1.500000e-03
    endloop
  endfacet
  facet normal 7.071068e-01 -7.071068e-01 0.000000e+00
    outer loop
      vertex   9.420000e-02 -1.861436e-02 0.000000e+00
      vertex   9.420000e-02 -1.861436e-02 1.500000e-03
      vertex   9.361436e-02 -1.920000e-02 0.000000e+00
    endloop
  endfacet
  facet normal 7.071068e-01 -7.071068e-01 0.000000e+00
    outer loop
      vertex   9.361436e-02 -1.920000e-02 0.000000e+00
      vertex   9.420000e-02 -1.861436e-02 1.500000e-03
      vertex   9.361436e-02 -1.920000e-02 1.500000e-03
    endloop
  endfacet
  facet normal -1.000000e+00 4.625929e-16 -1.069961e-30
    outer loop
      vertex   -1.000000e-01 3.000000e-02 0.000000e+00
      vertex   -1.000000e-01 -3.000000e-02 0.000000e+00
      vertex   -1.000000e-01 3.000000e-02 1.500000e-03
    endloop
  endfacet
  facet normal -1.000000e+00 4.625929e-16 0.000000e+00
    outer loop
      vertex   -1.000000e-01 3.000000e-02 1.500000e-03
      vertex   -1.000000e-01 -3.000000e-02 0.000000e+00
      vertex   -1.000000e-01 -3.000000e-02 1.500000e-03
    endloop
  endfacet
  facet normal -1.387779e-16 1.000000e+00 2.312965e-15
    outer loop
      vertex   1.000000e-01 3.000000e-02 0.000000e+00
      vertex   -1.000000e-01 3.000000e-02 0.000000e+00
      vertex   1.000000e-01 3.000000e-02 1.500000e-03
    endloop
  endfacet
  facet normal -1.040834e-16 1.000000e+00 -2.312965e-15
    outer loop
      vertex   1.000000e-01 3.000000e-02 1.500000e-03
      vertex   -1.000000e-01 3.000000e-02 0.000000e+00
      vertex   -1.000000e-01 3.000000e-02 1.500000e-03
    endloop
  endfacet
  facet normal 1.000000e+00 0.000000e+00 0.000000e+00
    outer loop
      vertex   1.000000e-01 -3.000000e-02 0.000000e+00
      vertex   1.000000e-01 3.000000e-02 0.000000e+00
      vertex   1.000000e-01 -3.000000e-02 1.500000e-03
    endloop
  endfacet
  facet normal 1.000000e+00 -0.000000e+00 0.000000e+00
    outer loop
      vertex   1.000000e-01 -3.000000e-02 1.500000e-03
      vertex   1.000000e-01 3.000000e-02 0.000000e+00
      vertex   1.000000e-01 3.000000e-02 1.500000e-03
    endloop
  endfacet
  facet normal 0.000000e+00 -1.000000e+00 0.000000e+00
    outer loop
      vertex   -1.000000e-01 -3.000000e-02 0.000000e+00
      vertex   1.000000e-01 -3.000000e-02 0.000000e+00
      vertex   -1.000000e-01 -3.000000e-02 1.500000e-03
    endloop
  endfacet
  facet normal 0.000000e+00 -1.000000e+00 0.000000e+00
    outer loop
      vertex   -1.000000e-01 -3.000000e-02 1.500000e-03
      vertex   1.000000e-01 -3.000000e-02 0.000000e+00
      vertex   1.000000e-01 -3.000000e-02 1.500000e-03
    endloop
  endfacet
  facet normal -0.000000e+00 0.000000e+00 1.000000e+00
    outer loop
      vertex   9.638564e-02 1.920000e-02 1.500000e-03
      vertex   9.638564e-02 -1.920000e-02 1.500000e-03
      vertex   9.660000e-02 2.000000e-02 1.500000e-03
    endloop
  endfacet
  facet normal 0.000000e+00 0.000000e+00 1.000000e+00
    outer loop
      vertex   9.660000e-02 2.000000e-02 1.500000e-03
      vertex   9.638564e-02 -1.920000e-02 1.500000e-03
      vertex   9.660000e-02 -2.000000e-02 1.500000e-03
    endloop
  endfacet
  facet normal 0.000000e+00 0.000000e+00 1.000000e+00
    outer loop
      vertex   9.660000e-02 2.000000e-02 1.500000e-03
      vertex   9.660000e-02 -2.000000e-02 1.500000e-03
      vertex   1.000000e-01 -3.000000e-02 1.500000e-03
    endloop
  endfacet
  facet normal 0.000000e+00 0.000000e+00 1.000000e+00
    outer loop
      vertex   1.000000e-01 -3.000000e-02 1.500000e-03
      vertex   9.660000e-02 -2.000000e-02 1.500000e-03
      vertex   9.638564e-02 -2.080000e-02 1.500000e-03
    endloop
  endfacet
  facet normal 0.000000e+00 0.000000e+00 1.000000e+00
    outer loop
      vertex   1.000000e-01 -3.000000e-02 1.500000e-03
      vertex   9.638564e-02 -2.080000e-02 1.500000e-03
      vertex   9.580000e-02 -2.138564e-02 1.500000e-03
    endloop
  endfacet
  facet normal 0.000000e+00 0.000000e+00 1.000000e+00
    outer loop
      vertex   9.638564e-02 1.920000e-02 1.500000e-03
      vertex   9.580000e-02 1.861436e-02 1.500000e-03
      vertex   9.638564e-02 -1.920000e-02 1.500000e-03
    endloop
  endfacet
  facet normal 0.000000e+00 0.000000e+00 1.000000e+00
    outer loop
      vertex   9.638564e-02 -1.920000e-02 1.500000e-03
      vertex   9.580000e-02 1.861436e-02 1.500000e-03
      vertex   9.580000e-02 -1.861436e-02 1.500000e-03
    endloop
  endfacet
  facet normal 0.000000e+00 -0.000000e+00 1.000000e+00
    outer loop
      vertex   9.580000e-02 -1.861436e-02 1.500000e-03
      vertex   9.580000e-02 1.861436e-02 1.500000e-03
      vertex   9.500000e-02 1.840000e-02 1.500000e-03
    endloop
  endfacet
  facet normal 0.000000e+00 0.000000e+00 1.000000e+00
    outer loop
      vertex   9.580000e-02 -1.861436e-02 1.500000e-03
      vertex   9.500000e-02 1.840000e-02 1.500000e-03
      vertex   9.500000e-02 -1.840000e-02 1.500000e-03
    endloop
  endfacet
  facet normal 0.000000e+00 -0.000000e+00 1.000000e+00
    outer loop
      vertex   9.500000e-02 -1.840000e-02 1.500000e-03
      vertex   9.500000e-02 1.840000e-02 1.500000e-03
      vertex   9.420000e-02 -1.861436e-02 1.500000e-03
    endloop
  endfacet
  facet normal 0.000000e+00 0.000000e+00 1.000000e+00
    outer loop
      vertex   9.420000e-02 -1.861436e-02 1.500000e-03
      vertex   9.500000e-02 1.840000e-02 1.500000e-03
      vertex   9.420000e-02 1.861436e-02 1.500000e-03
    endloop
  endfacet
  facet normal 0.000000e+00 -0.000000e+00 1.000000e+00
    outer loop
      vertex   9.420000e-02 -1.861436e-02 1.500000e-03
      vertex   9.420000e-02 1.861436e-02 1.500000e-03
      vertex   -9.420000e-02 1.861436e-02 1.500000e-03
    endloop
  endfacet
  facet normal 0.000000e+00 0.000000e+00 1.000000e+00
    outer loop
      vertex   -9.420000e-02 1.861436e-02 1.500000e-03
      vertex   9.420000e-02 1.861436e-02 1.500000e-03
      vertex   -9.361436e-02 1.920000e-02 1.500000e-03
    endloop
  endfacet
  facet normal -0.000000e+00 0.000000e+00 1.000000e+00
    outer loop
      vertex   -9.361436e-02 1.920000e-02 1.500000e-03
      vertex   9.420000e-02 1.861436e-02 1.500000e-03
      vertex   9.361436e-02 1.920000e-02 1.500000e-03
    endloop
  endfacet
  facet normal 0.000000e+00 0.000000e+00 1.000000e+00
    outer loop
      vertex   -9.361436e-02 1.920000e-02 1.500000e-03
      vertex   9.361436e-02 1.920000e-02 1.500000e-03
      vertex   -9.340000e-02 2.000000e-02 1.500000e-03
    endloop
  endfacet
  facet normal -0.000000e+00 0.000000e+00 1.000000e+00
    outer loop
      vertex   -9.340000e-02 2.000000e-02 1.500000e-03
      vertex   9.361436e-02 1.920000e-02 1.500000e-03
      vertex   9.340000e-02 2.000000e-02 1.500000e-03
    endloop
  endfacet
  facet normal 0.000000e+00 -0.000000e+00 1.000000e+00
    outer loop
      vertex   -9.340000e-02 2.000000e-02 1.500000e-03
      vertex   9.340000e-02 2.000000e-02 1.500000e-03
      vertex   -9.361436e-02 2.080000e-02 1.500000e-03
    endloop
  endfacet
  facet normal -0.000000e+00 0.000000e+00 1.000000e+00
    outer loop
      vertex   -9.361436e-02 2.080000e-02 1.500000e-03
      vertex   9.340000e-02 2.000000e-02 1.500000e-03
      vertex   9.361436e-02 2.080000e-02 1.500000e-03
    endloop
  endfacet
  facet normal 0.000000e+00 -0.000000e+00 1.000000e+00
    outer loop
      vertex   -9.361436e-02 2.080000e-02 1.500000e-03
      vertex   9.361436e-02 2.080000e-02 1.500000e-03
      vertex   -9.420000e-02 2.138564e-02 1.500000e-03
    endloop
  endfacet
  facet normal 0.000000e+00 0.000000e+00 1.000000e+00
    outer loop
      vertex   -9.420000e-02 2.138564e-02 1.500000e-03
      vertex   9.361436e-02 2.080000e-02 1.500000e-03
      vertex   9.420000e-02 2.138564e-02 1.500000e-03
    endloop
  endfacet
  facet normal -0.000000e+00 -0.000000e+00 1.000000e+00
    outer loop
      vertex   -9.420000e-02 2.138564e-02 1.500000e-03
      vertex   9.420000e-02 2.138564e-02 1.500000e-03
      vertex   -1.000000e-01 3.000000e-02 1.500000e-03
    endloop
  endfacet
  facet normal -0.000000e+00 0.000000e+00 1.000000e+00
    outer loop
      vertex   -1.000000e-01 3.000000e-02 1.500000e-03
      vertex   9.420000e-02 2.138564e-02 1.500000e-03
      vertex   1.000000e-01 3.000000e-02 1.500000e-03
    endloop
  endfacet
  facet normal 0.000000e+00 0.000000e+00 1.000000e+00
    outer loop
      vertex   1.000000e-01 3.000000e-02 1.500000e-03
      vertex   9.420000e-02 2.138564e-02 1.500000e-03
      vertex   9.500000e-02 2.160000e-02 1.500000e-03
    endloop
  endfacet
  facet normal 0.000000e+00 0.000000e+00 1.000000e+00
    outer loop
      vertex   1.000000e-01 3.000000e-02 1.500000e-03
      vertex   9.500000e-02 2.160000e-02 1.500000e-03
      vertex   9.580000e-02 2.138564e-02 1.500000e-03
    endloop
  endfacet
  facet normal -0.000000e+00 0.000000e+00 1.000000e+00
    outer loop
      vertex   9.580000e-02 2.138564e-02 1.500000e-03
      vertex   9.638564e-02 2.080000e-02 1.500000e-03
      vertex   1.000000e-01 3.000000e-02 1.500000e-03
    endloop
  endfacet
  facet normal 0.000000e+00 0.000000e+00 1.000000e+00
    outer loop
      vertex   1.000000e-01 3.000000e-02 1.500000e-03
      vertex   9.638564e-02 2.080000e-02 1.500000e-03
      vertex   9.660000e-02 2.000000e-02 1.500000e-03
    endloop
  endfacet
  facet normal 0.000000e+00 0.000000e+00 1.000000e+00
    outer loop
      vertex   1.000000e-01 3.000000e-02 1.500000e-03
      vertex   9.660000e-02 2.000000e-02 1.500000e-03
      vertex   1.000000e-01 -3.000000e-02 1.500000e-03
    endloop
  endfacet
  facet normal 0.000000e+00 0.000000e+00 1.000000e+00
    outer loop
      vertex   9.420000e-02 -1.861436e-02 1.500000e-03
      vertex   -9.420000e-02 1.861436e-02 1.500000e-03
      vertex   -9.420000e-02 -1.861436e-02 1.500000e-03
    endloop
  endfacet
  facet normal 0.000000e+00 -0.000000e+00 1.000000e+00
    outer loop
      vertex   -9.420000e-02 -1.861436e-02 1.500000e-03
      vertex   -9.420000e-02 1.861436e-02 1.500000e-03
      vertex   -9.500000e-02 1.840000e-02 1.500000e-03
    endloop
  endfacet
  facet normal 0.000000e+00 0.000000e+00 1.000000e+00
    outer loop
      vertex   -9.420000e-02 -1.861436e-02 1.500000e-03
      vertex   -9.500000e-02 1.840000e-02 1.500000e-03
      vertex   -9.500000e-02 -1.840000e-02 1.500000e-03
    endloop
  endfacet
  facet normal 0.000000e+00 -0.000000e+00 1.000000e+00
    outer loop
      vertex   -9.500000e-02 -1.840000e-02 1.500000e-03
      vertex   -9.500000e-02 1.840000e-02 1.500000e-03
      vertex   -9.580000e-02 -1.861436e-02 1.500000e-03
    endloop
  endfacet
  facet normal 0.000000e+00 0.000000e+00 1.000000e+00
    outer loop
      vertex   -9.580000e-02 -1.861436e-02 1.500000e-03
      vertex   -9.500000e-02 1.840000e-02 1.500000e-03
      vertex   -9.580000e-02 1.861436e-02 1.500000e-03
    endloop
  endfacet
  facet normal 0.000000e+00 -0.000000e+00 1.000000e+00
    outer loop
      vertex   -9.580000e-02 -1.861436e-02 1.500000e-03
      vertex   -9.580000e-02 1.861436e-02 1.500000e-03
      vertex   -9.638564e-02 -1.920000e-02 1.500000e-03
    endloop
  endfacet
  facet normal 0.000000e+00 0.000000e+00 1.000000e+00
    outer loop
      vertex   -9.638564e-02 -1.920000e-02 1.500000e-03
      vertex   -9.580000e-02 1.861436e-02 1.500000e-03
      vertex   -9.638564e-02 1.920000e-02 1.500000e-03
    endloop
  endfacet
  facet normal 0.000000e+00 -0.000000e+00 1.000000e+00
    outer loop
      vertex   -9.638564e-02 -1.920000e-02 1.500000e-03
      vertex   -9.638564e-02 1.920000e-02 1.500000e-03
      vertex   -9.660000e-02 2.000000e-02 1.500000e-03
    endloop
  endfacet
  facet normal 0.000000e+00 0.000000e+00 1.000000e+00
    outer loop
      vertex   -9.638564e-02 2.080000e-02 1.500000e-03
      vertex   -1.000000e-01 3.000000e-02 1.500000e-03
      vertex   -9.660000e-02 2.000000e-02 1.500000e-03
    endloop
  endfacet
  facet normal 0.000000e+00 0.000000e+00 1.000000e+00
    outer loop
      vertex   -9.660000e-02 2.000000e-02 1.500000e-03
      vertex   -1.000000e-01 3.000000e-02 1.500000e-03
      vertex   -1.000000e-01 -3.000000e-02 1.500000e-03
    endloop
  endfacet
  facet normal 0.000000e+00 0.000000e+00 1.000000e+00
    outer loop
      vertex   -9.660000e-02 2.000000e-02 1.500000e-03
      vertex   -1.000000e-01 -3.000000e-02 1.500000e-03
      vertex   -9.660000e-02 -2.000000e-02 1.500000e-03
    endloop
  endfacet
  facet normal 0.000000e+00 0.000000e+00 1.000000e+00
    outer loop
      vertex   -9.660000e-02 -2.000000e-02 1.500000e-03
      vertex   -1.000000e-01 -3.000000e-02 1.500000e-03
      vertex   -9.638564e-02 -2.080000e-02 1.500000e-03
    endloop
  endfacet
  facet normal 0.000000e+00 0.000000e+00 1.000000e+00
    outer loop
      vertex   -9.638564e-02 -2.080000e-02 1.500000e-03
      vertex   -1.000000e-01 -3.000000e-02 1.500000e-03
      vertex   -9.580000e-02 -2.138564e-02 1.500000e-03
    endloop
  endfacet
  facet normal 0.000000e+00 0.000000e+00 1.000000e+00
    outer loop
      vertex   -9.580000e-02 -2.138564e-02 1.500000e-03
      vertex   -1.000000e-01 -3.000000e-02 1.500000e-03
      vertex   -9.500000e-02 -2.160000e-02 1.500000e-03
    endloop
  endfacet
  facet normal -0.000000e+00 0.000000e+00 1.000000e+00
    outer loop
      vertex   -9.500000e-02 -2.160000e-02 1.500000e-03
      vertex   -1.000000e-01 -3.000000e-02 1.500000e-03
      vertex   -9.420000e-02 -2.138564e-02 1.500000e-03
    endloop
  endfacet
  facet normal 0.000000e+00 0.000000e+00 1.000000e+00
    outer loop
      vertex   -9.420000e-02 -2.138564e-02 1.500000e-03
      vertex   -1.000000e-01 -3.000000e-02 1.500000e-03
      vertex   1.000000e-01 -3.000000e-02 1.500000e-03
    endloop
  endfacet
  facet normal -0.000000e+00 0.000000e+00 1.000000e+00
    outer loop
      vertex   -9.420000e-02 -2.138564e-02 1.500000e-03
      vertex   1.000000e-01 -3.000000e-02 1.500000e-03
      vertex   9.420000e-02 -2.138564e-02 1.500000e-03
    endloop
  endfacet
  facet normal 0.000000e+00 0.000000e+00 1.000000e+00
    outer loop
      vertex   9.420000e-02 -2.138564e-02 1.500000e-03
      vertex   1.000000e-01 -3.000000e-02 1.500000e-03
      vertex   9.500000e-02 -2.160000e-02 1.500000e-03
    endloop
  endfacet
  facet normal -0.000000e+00 0.000000e+00 1.000000e+00
    outer loop
      vertex   9.500000e-02 -2.160000e-02 1.500000e-03
      vertex   1.000000e-01 -3.000000e-02 1.500000e-03
      vertex   9.580000e-02 -2.138564e-02 1.500000e-03
    endloop
  endfacet
  facet normal 0.000000e+00 -0.000000e+00 1.000000e+00
    outer loop
      vertex   -9.638564e-02 2.080000e-02 1.500000e-03
      vertex   -9.580000e-02 2.138564e-02 1.500000e-03
      vertex   -1.000000e-01 3.000000e-02 1.500000e-03
    endloop
  endfacet
  facet normal 0.000000e+00 0.000000e+00 1.000000e+00
    outer loop
      vertex   -1.000000e-01 3.000000e-02 1.500000e-03
      vertex   -9.580000e-02 2.138564e-02 1.500000e-03
      vertex   -9.500000e-02 2.160000e-02 1.500000e-03
    endloop
  endfacet
  facet normal 0.000000e+00 0.000000e+00 1.000000e+00
    outer loop
      vertex   -1.000000e-01 3.000000e-02 1.500000e-03
      vertex   -9.500000e-02 2.160000e-02 1.500000e-03
      vertex   -9.420000e-02 2.138564e-02 1.500000e-03
    endloop
  endfacet
  facet normal 0.000000e+00 0.000000e+00 1.000000e+00
    outer loop
      vertex   -9.361436e-02 -2.080000e-02 1.500000e-03
      vertex   9.361436e-02 -2.080000e-02 1.500000e-03
      vertex   -9.340000e-02 -2.000000e-02 1.500000e-03
    endloop
  endfacet
  facet normal -0.000000e+00 0.000000e+00 1.000000e+00
    outer loop
      vertex   -9.340000e-02 -2.000000e-02 1.500000e-03
      vertex   9.361436e-02 -2.080000e-02 1.500000e-03
      vertex   9.340000e-02 -2.000000e-02 1.500000e-03
    endloop
  endfacet
  facet normal 0.000000e+00 -0.000000e+00 1.000000e+00
    outer loop
      vertex   -9.340000e-02 -2.000000e-02 1.500000e-03
      vertex   9.340000e-02 -2.000000e-02 1.500000e-03
      vertex   -9.361436e-02 -1.920000e-02 1.500000e-03
    endloop
  endfacet
  facet normal -0.000000e+00 0.000000e+00 1.000000e+00
    outer loop
      vertex   -9.361436e-02 -1.920000e-02 1.500000e-03
      vertex   9.340000e-02 -2.000000e-02 1.500000e-03
      vertex   9.361436e-02 -1.920000e-02 1.500000e-03
    endloop
  endfacet
  facet normal 0.000000e+00 -0.000000e+00 1.000000e+00
    outer loop
      vertex   -9.361436e-02 -1.920000e-02 1.500000e-03
      vertex   9.361436e-02 -1.920000e-02 1.500000e-03
      vertex   -9.420000e-02 -1.861436e-02 1.500000e-03
    endloop
  endfacet
  facet normal -0.000000e+00 0.000000e+00 1.000000e+00
    outer loop
      vertex   -9.420000e-02 -1.861436e-02 1.500000e-03
      vertex   9.361436e-02 -1.920000e-02 1.500000e-03
      vertex   9.420000e-02 -1.861436e-02 1.500000e-03
    endloop
  endfacet
  facet normal 0.000000e+00 0.000000e+00 1.000000e+00
    outer loop
      vertex   9.361436e-02 -2.080000e-02 1.500000e-03
      vertex   -9.361436e-02 -2.080000e-02 1.500000e-03
      vertex   9.420000e-02 -2.138564e-02 1.500000e-03
    endloop
  endfacet
  facet normal 0.000000e+00 0.000000e+00 1.000000e+00
    outer loop
      vertex   9.420000e-02 -2.138564e-02 1.500000e-03
      vertex   -9.361436e-02 -2.080000e-02 1.500000e-03
      vertex   -9.420000e-02 -2.138564e-02 1.500000e-03
    endloop
  endfacet
  facet normal 0.000000e+00 0.000000e+00 1.000000e+00
    outer loop
      vertex   -9.660000e-02 -2.000000e-02 1.500000e-03
      vertex   -9.638564e-02 -1.920000e-02 1.500000e-03
      vertex   -9.660000e-02 2.000000e-02 1.500000e-03
    endloop
  endfacet
  facet normal 0.000000e+00 0.000000e+00 -1.000000e+00
    outer loop
      vertex   9.361436e-02 1.920000e-02 0.000000e+00
      vertex   -9.361436e-02 1.920000e-02 0.000000e+00
      vertex   9.340000e-02 2.000000e-02 0.000000e+00
    endloop
  endfacet
  facet normal -0.000000e+00 0.000000e+00 -1.000000e+00
    outer loop
      vertex   9.340000e-02 2.000000e-02 0.000000e+00
      vertex   -9.361436e-02 1.920000e-02 0.000000e+00
      vertex   -9.340000e-02 2.000000e-02 0.000000e+00
    endloop
  endfacet
  facet normal 0.000000e+00 0.000000e+00 -1.000000e+00
    outer loop
      vertex   9.340000e-02 2.000000e-02 0.000000e+00
      vertex   -9.340000e-02 2.000000e-02 0.000000e+00
      vertex   9.361436e-02 2.080000e-02 0.000000e+00
    endloop
  endfacet
  facet normal -0.000000e+00 0.000000e+00 -1.000000e+00
    outer loop
      vertex   9.361436e-02 2.080000e-02 0.000000e+00
      vertex   -9.340000e-02 2.000000e-02 0.000000e+00
      vertex   -9.361436e-02 2.080000e-02 0.000000e+00
    endloop
  endfacet
  facet normal 0.000000e+00 0.000000e+00 -1.000000e+00
    outer loop
      vertex   9.361436e-02 2.080000e-02 0.000000e+00
      vertex   -9.361436e-02 2.080000e-02 0.000000e+00
      vertex   9.420000e-02 2.138564e-02 0.000000e+00
    endloop
  endfacet
  facet normal 0.000000e+00 0.000000e+00 -1.000000e+00
    outer loop
      vertex   9.420000e-02 2.138564e-02 0.000000e+00
      vertex   -9.361436e-02 2.080000e-02 0.000000e+00
      vertex   -9.420000e-02 2.138564e-02 0.000000e+00
    endloop
  endfacet
  facet normal -0.000000e+00 0.000000e+00 -1.000000e+00
    outer loop
      vertex   9.420000e-02 2.138564e-02 0.000000e+00
      vertex   -9.420000e-02 2.138564e-02 0.000000e+00
      vertex   1.000000e-01 3.000000e-02 0.000000e+00
    endloop
  endfacet
  facet normal 0.000000e+00 0.000000e+00 -1.000000e+00
    outer loop
      vertex   1.000000e-01 3.000000e-02 0.000000e+00
      vertex   -9.420000e-02 2.138564e-02 0.000000e+00
      vertex   -1.000000e-01 3.000000e-02 0.000000e+00
    endloop
  endfacet
  facet normal 0.000000e+00 0.000000e+00 -1.000000e+00
    outer loop
      vertex   -1.000000e-01 3.000000e-02 0.000000e+00
      vertex   -9.420000e-02 2.138564e-02 0.000000e+00
      vertex   -9.500000e-02 2.160000e-02 0.000000e+00
    endloop
  endfacet
  facet normal 0.000000e+00 0.000000e+00 -1.000000e+00
    outer loop
      vertex   -1.000000e-01 3.000000e-02 0.000000e+00
      vertex   -9.500000e-02 2.160000e-02 0.000000e+00
      vertex   -9.580000e-02 2.138564e-02 0.000000e+00
    endloop
  endfacet
  facet normal 0.000000e+00 -0.000000e+00 -1.000000e+00
    outer loop
      vertex   -9.361436e-02 1.920000e-02 0.000000e+00
      vertex   9.361436e-02 1.920000e-02 0.000000e+00
      vertex   -9.420000e-02 1.861436e-02 0.000000e+00
    endloop
  endfacet
  facet normal 0.000000e+00 0.000000e+00 -1.000000e+00
    outer loop
      vertex   -9.420000e-02 1.861436e-02 0.000000e+00
      vertex   9.361436e-02 1.920000e-02 0.000000e+00
      vertex   9.420000e-02 1.861436e-02 0.000000e+00
    endloop
  endfacet
  facet normal 0.000000e+00 0.000000e+00 -1.000000e+00
    outer loop
      vertex   -9.420000e-02 1.861436e-02 0.000000e+00
      vertex   9.420000e-02 1.861436e-02 0.000000e+00
      vertex   -9.420000e-02 -1.861436e-02 0.000000e+00
    endloop
  endfacet
  facet normal 0.000000e+00 0.000000e+00 -1.000000e+00
    outer loop
      vertex   -9.420000e-02 -1.861436e-02 0.000000e+00
      vertex   9.420000e-02 1.861436e-02 0.000000e+00
      vertex   9.420000e-02 -1.861436e-02 0.000000e+00
    endloop
  endfacet
  facet normal 0.000000e+00 0.000000e+00 -1.000000e+00
    outer loop
      vertex   -9.420000e-02 -1.861436e-02 0.000000e+00
      vertex   9.420000e-02 -1.861436e-02 0.000000e+00
      vertex   -9.361436e-02 -1.920000e-02 0.000000e+00
    endloop
  endfacet
  facet normal 0.000000e+00 0.000000e+00 -1.000000e+00
    outer loop
      vertex   -9.361436e-02 -1.920000e-02 0.000000e+00
      vertex   9.420000e-02 -1.861436e-02 0.000000e+00
      vertex   9.361436e-02 -1.920000e-02 0.000000e+00
    endloop
  endfacet
  facet normal 0.000000e+00 0.000000e+00 -1.000000e+00
    outer loop
      vertex   -9.361436e-02 -1.920000e-02 0.000000e+00
      vertex   9.361436e-02 -1.920000e-02 0.000000e+00
      vertex   -9.340000e-02 -2.000000e-02 0.000000e+00
    endloop
  endfacet
  facet normal 0.000000e+00 0.000000e+00 -1.000000e+00
    outer loop
      vertex   -9.340000e-02 -2.000000e-02 0.000000e+00
      vertex   9.361436e-02 -1.920000e-02 0.000000e+00
      vertex   9.340000e-02 -2.000000e-02 0.000000e+00
    endloop
  endfacet
  facet normal 0.000000e+00 -0.000000e+00 -1.000000e+00
    outer loop
      vertex   -9.340000e-02 -2.000000e-02 0.000000e+00
      vertex   9.340000e-02 -2.000000e-02 0.000000e+00
      vertex   -9.361436e-02 -2.080000e-02 0.000000e+00
    endloop
  endfacet
  facet normal 0.000000e+00 0.000000e+00 -1.000000e+00
    outer loop
      vertex   -9.361436e-02 -2.080000e-02 0.000000e+00
      vertex   9.340000e-02 -2.000000e-02 0.000000e+00
      vertex   9.361436e-02 -2.080000e-02 0.000000e+00
    endloop
  endfacet
  facet normal 0.000000e+00 -0.000000e+00 -1.000000e+00
    outer loop
      vertex   -9.361436e-02 -2.080000e-02 0.000000e+00
      vertex   9.361436e-02 -2.080000e-02 0.000000e+00
      vertex   -9.420000e-02 -2.138564e-02 0.000000e+00
    endloop
  endfacet
  facet normal 0.000000e+00 0.000000e+00 -1.000000e+00
    outer loop
      vertex   -9.420000e-02 -2.138564e-02 0.000000e+00
      vertex   9.361436e-02 -2.080000e-02 0.000000e+00
      vertex   9.420000e-02 -2.138564e-02 0.000000e+00
    endloop
  endfacet
  facet normal 0.000000e+00 -0.000000e+00 -1.000000e+00
    outer loop
      vertex   -9.420000e-02 -2.138564e-02 0.000000e+00
      vertex   9.420000e-02 -2.138564e-02 0.000000e+00
      vertex   -1.000000e-01 -3.000000e-02 0.000000e+00
    endloop
  endfacet
  facet normal 0.000000e+00 0.000000e+00 -1.000000e+00
    outer loop
      vertex   -1.000000e-01 -3.000000e-02 0.000000e+00
      vertex   9.420000e-02 -2.138564e-02 0.000000e+00
      vertex   1.000000e-01 -3.000000e-02 0.000000e+00
    endloop
  endfacet
  facet normal 0.000000e+00 0.000000e+00 -1.000000e+00
    outer loop
      vertex   1.000000e-01 -3.000000e-02 0.000000e+00
      vertex   9.420000e-02 -2.138564e-02 0.000000e+00
      vertex   9.500000e-02 -2.160000e-02 0.000000e+00
    endloop
  endfacet
  facet normal 0.000000e+00 0.000000e+00 -1.000000e+00
    outer loop
      vertex   1.000000e-01 -3.000000e-02 0.000000e+00
      vertex   9.500000e-02 -2.160000e-02 0.000000e+00
      vertex   9.580000e-02 -2.138564e-02 0.000000e+00
    endloop
  endfacet
  facet normal 0.000000e+00 0.000000e+00 -1.000000e+00
    outer loop
      vertex   9.420000e-02 1.861436e-02 0.000000e+00
      vertex   9.500000e-02 1.840000e-02 0.000000e+00
      vertex   9.420000e-02 -1.861436e-02 0.000000e+00
    endloop
  endfacet
  facet normal 0.000000e+00 0.000000e+00 -1.000000e+00
    outer loop
      vertex   9.420000e-02 -1.861436e-02 0.000000e+00
      vertex   9.500000e-02 1.840000e-02 0.000000e+00
      vertex   9.500000e-02 -1.840000e-02 0.000000e+00
    endloop
  endfacet
  facet normal 0.000000e+00 0.000000e+00 -1.000000e+00
    outer loop
      vertex   9.500000e-02 -1.840000e-02 0.000000e+00
      vertex   9.500000e-02 1.840000e-02 0.000000e+00
      vertex   9.580000e-02 -1.861436e-02 0.000000e+00
    endloop
  endfacet
  facet normal 0.000000e+00 0.000000e+00 -1.000000e+00
    outer loop
      vertex   9.580000e-02 -1.861436e-02 0.000000e+00
      vertex   9.500000e-02 1.840000e-02 0.000000e+00
      vertex   9.580000e-02 1.861436e-02 0.000000e+00
    endloop
  endfacet
  facet normal 0.000000e+00 0.000000e+00 -1.000000e+00
    outer loop
      vertex   9.580000e-02 -1.861436e-02 0.000000e+00
      vertex   9.580000e-02 1.861436e-02 0.000000e+00
      vertex   9.638564e-02 -1.920000e-02 0.000000e+00
    endloop
  endfacet
  facet normal 0.000000e+00 0.000000e+00 -1.000000e+00
    outer loop
      vertex   9.638564e-02 -1.920000e-02 0.000000e+00
      vertex   9.580000e-02 1.861436e-02 0.000000e+00
      vertex   9.638564e-02 1.920000e-02 0.000000e+00
    endloop
  endfacet
  facet normal 0.000000e+00 0.000000e+00 -1.000000e+00
    outer loop
      vertex   9.638564e-02 -1.920000e-02 0.000000e+00
      vertex   9.638564e-02 1.920000e-02 0.000000e+00
      vertex   9.660000e-02 2.000000e-02 0.000000e+00
    endloop
  endfacet
  facet normal 0.000000e+00 0.000000e+00 -1.000000e+00
    outer loop
      vertex   9.638564e-02 2.080000e-02 0.000000e+00
      vertex   1.000000e-01 3.000000e-02 0.000000e+00
      vertex   9.660000e-02 2.000000e-02 0.000000e+00
    endloop
  endfacet
  facet normal 0.000000e+00 0.000000e+00 -1.000000e+00
    outer loop
      vertex   9.660000e-02 2.000000e-02 0.000000e+00
      vertex   1.000000e-01 3.000000e-02 0.000000e+00
      vertex   1.000000e-01 -3.000000e-02 0.000000e+00
    endloop
  endfacet
  facet normal 0.000000e+00 0.000000e+00 -1.000000e+00
    outer loop
      vertex   9.660000e-02 2.000000e-02 0.000000e+00
      vertex   1.000000e-01 -3.000000e-02 0.000000e+00
      vertex   9.660000e-02 -2.000000e-02 0.000000e+00
    endloop
  endfacet
  facet normal 0.000000e+00 -0.000000e+00 -1.000000e+00
    outer loop
      vertex   9.660000e-02 -2.000000e-02 0.000000e+00
      vertex   1.000000e-01 -3.000000e-02 0.000000e+00
      vertex   9.638564e-02 -2.080000e-02 0.000000e+00
    endloop
  endfacet
  facet normal 0.000000e+00 -0.000000e+00 -1.000000e+00
    outer loop
      vertex   9.638564e-02 -2.080000e-02 0.000000e+00
      vertex   1.000000e-01 -3.000000e-02 0.000000e+00
      vertex   9.580000e-02 -2.138564e-02 0.000000e+00
    endloop
  endfacet
  facet normal 0.000000e+00 0.000000e+00 -1.000000e+00
    outer loop
      vertex   9.638564e-02 2.080000e-02 0.000000e+00
      vertex   9.580000e-02 2.138564e-02 0.000000e+00
      vertex   1.000000e-01 3.000000e-02 0.000000e+00
    endloop
  endfacet
  facet normal 0.000000e+00 0.000000e+00 -1.000000e+00
    outer loop
      vertex   1.000000e-01 3.000000e-02 0.000000e+00
      vertex   9.580000e-02 2.138564e-02 0.000000e+00
      vertex   9.500000e-02 2.160000e-02 0.000000e+00
    endloop
  endfacet
  facet normal 0.000000e+00 0.000000e+00 -1.000000e+00
    outer loop
      vertex   1.000000e-01 3.000000e-02 0.000000e+00
      vertex   9.500000e-02 2.160000e-02 0.000000e+00
      vertex   9.420000e-02 2.138564e-02 0.000000e+00
    endloop
  endfacet
  facet normal -0.000000e+00 -0.000000e+00 -1.000000e+00
    outer loop
      vertex   -9.638564e-02 1.920000e-02 0.000000e+00
      vertex   -9.638564e-02 -1.920000e-02 0.000000e+00
      vertex   -9.660000e-02 2.000000e-02 0.000000e+00
    endloop
  endfacet
  facet normal 0.000000e+00 0.000000e+00 -1.000000e+00
    outer loop
      vertex   -9.660000e-02 2.000000e-02 0.000000e+00
      vertex   -9.638564e-02 -1.920000e-02 0.000000e+00
      vertex   -9.660000e-02 -2.000000e-02 0.000000e+00
    endloop
  endfacet
  facet normal 0.000000e+00 -0.000000e+00 -1.000000e+00
    outer loop
      vertex   -9.660000e-02 2.000000e-02 0.000000e+00
      vertex   -9.660000e-02 -2.000000e-02 0.000000e+00
      vertex   -1.000000e-01 -3.000000e-02 0.000000e+00
    endloop
  endfacet
  facet normal 0.000000e+00 0.000000e+00 -1.000000e+00
    outer loop
      vertex   -1.000000e-01 -3.000000e-02 0.000000e+00
      vertex   -9.660000e-02 -2.000000e-02 0.000000e+00
      vertex   -9.638564e-02 -2.080000e-02 0.000000e+00
    endloop
  endfacet
  facet normal 0.000000e+00 0.000000e+00 -1.000000e+00
    outer loop
      vertex   -1.000000e-01 -3.000000e-02 0.000000e+00
      vertex   -9.638564e-02 -2.080000e-02 0.000000e+00
      vertex   -9.580000e-02 -2.138564e-02 0.000000e+00
    endloop
  endfacet
  facet normal 0.000000e+00 0.000000e+00 -1.000000e+00
    outer loop
      vertex   -9.638564e-02 1.920000e-02 0.000000e+00
      vertex   -9.580000e-02 1.861436e-02 0.000000e+00
      vertex   -9.638564e-02 -1.920000e-02 0.000000e+00
    endloop
  endfacet
  facet normal 0.000000e+00 0.000000e+00 -1.000000e+00
    outer loop
      vertex   -9.638564e-02 -1.920000e-02 0.000000e+00
      vertex   -9.580000e-02 1.861436e-02 0.000000e+00
      vertex   -9.580000e-02 -1.861436e-02 0.000000e+00
    endloop
  endfacet
  facet normal 0.000000e+00 0.000000e+00 -1.000000e+00
    outer loop
      vertex   -9.580000e-02 -1.861436e-02 0.000000e+00
      vertex   -9.580000e-02 1.861436e-02 0.000000e+00
      vertex   -9.500000e-02 1.840000e-02 0.000000e+00
    endloop
  endfacet
  facet normal 0.000000e+00 0.000000e+00 -1.000000e+00
    outer loop
      vertex   -9.580000e-02 -1.861436e-02 0.000000e+00
      vertex   -9.500000e-02 1.840000e-02 0.000000e+00
      vertex   -9.500000e-02 -1.840000e-02 0.000000e+00
    endloop
  endfacet
  facet normal 0.000000e+00 0.000000e+00 -1.000000e+00
    outer loop
      vertex   -9.500000e-02 -1.840000e-02 0.000000e+00
      vertex   -9.500000e-02 1.840000e-02 0.000000e+00
      vertex   -9.420000e-02 -1.861436e-02 0.000000e+00
    endloop
  endfacet
  facet normal 0.000000e+00 0.000000e+00 -1.000000e+00
    outer loop
      vertex   -9.420000e-02 -1.861436e-02 0.000000e+00
      vertex   -9.500000e-02 1.840000e-02 0.000000e+00
      vertex   -9.420000e-02 1.861436e-02 0.000000e+00
    endloop
  endfacet
  facet normal -0.000000e+00 0.000000e+00 -1.000000e+00
    outer loop
      vertex   -9.580000e-02 2.138564e-02 0.000000e+00
      vertex   -9.638564e-02 2.080000e-02 0.000000e+00
      vertex   -1.000000e-01 3.000000e-02 0.000000e+00
    endloop
  endfacet
  facet normal 0.000000e+00 0.000000e+00 -1.000000e+00
    outer loop
      vertex   -1.000000e-01 3.000000e-02 0.000000e+00
      vertex   -9.638564e-02 2.080000e-02 0.000000e+00
      vertex   -9.660000e-02 2.000000e-02 0.000000e+00
    endloop
  endfacet
  facet normal 0.000000e+00 -0.000000e+00 -1.000000e+00
    outer loop
      vertex   -1.000000e-01 3.000000e-02 0.000000e+00
      vertex   -9.660000e-02 2.000000e-02 0.000000e+00
      vertex   -1.000000e-01 -3.000000e-02 0.000000e+00
    endloop
  endfacet
  facet normal 0.000000e+00 -0.000000e+00 -1.000000e+00
    outer loop
      vertex   -9.580000e-02 -2.138564e-02 0.000000e+00
      vertex   -9.500000e-02 -2.160000e-02 0.000000e+00
      vertex   -1.000000e-01 -3.000000e-02 0.000000e+00
    endloop
  endfacet
  facet normal 0.000000e+00 0.000000e+00 -1.000000e+00
    outer loop
      vertex   -1.000000e-01 -3.000000e-02 0.000000e+00
      vertex   -9.500000e-02 -2.160000e-02 0.000000e+00
      vertex   -9.420000e-02 -2.138564e-02 0.000000e+00
    endloop
  endfacet
  facet normal 0.000000e+00 0.000000e+00 -1.000000e+00
    outer loop
      vertex   9.660000e-02 -2.000000e-02 0.000000e+00
      vertex   9.638564e-02 -1.920000e-02 0.000000e+00
      vertex   9.660000e-02 2.000000e-02 0.000000e+00
    endloop
  endfacet
endsolid
